<svg width="400" height="270" viewBox="0 0 400 270" fill="none" xmlns="http://www.w3.org/2000/svg">
<g clip-path="url(#clip0_0_1)">
<rect width="400" height="270" fill="white"/>
<path d="M219.21 -72.9056L-24.6322 156.608L-107.499 0.560292L219.21 -72.9056Z" fill="#F54291"/>
<path d="M22.0879 248.563C20.9622 248.24 20.1419 247.843 19.627 247.374C19.1165 246.9 18.8613 246.317 18.8613 245.624C18.8613 244.84 19.1735 244.193 19.7979 243.683C20.4268 243.168 21.2425 242.91 22.2451 242.91C22.9287 242.91 23.5371 243.042 24.0703 243.307C24.6081 243.571 25.0228 243.936 25.3145 244.4C25.6107 244.865 25.7588 245.373 25.7588 245.925H24.4395C24.4395 245.323 24.248 244.852 23.8652 244.51C23.4824 244.163 22.9424 243.99 22.2451 243.99C21.598 243.99 21.0921 244.134 20.7275 244.421C20.3675 244.703 20.1875 245.098 20.1875 245.604C20.1875 246.009 20.3584 246.353 20.7002 246.636C21.0465 246.914 21.6322 247.169 22.457 247.401C23.2865 247.634 23.9336 247.891 24.3984 248.174C24.8678 248.452 25.2142 248.778 25.4375 249.151C25.6654 249.525 25.7793 249.965 25.7793 250.471C25.7793 251.277 25.4648 251.924 24.8359 252.412C24.207 252.895 23.3662 253.137 22.3135 253.137C21.6299 253.137 20.9919 253.007 20.3994 252.747C19.807 252.483 19.349 252.123 19.0254 251.667C18.7064 251.211 18.5469 250.694 18.5469 250.115H19.8662C19.8662 250.717 20.0872 251.193 20.5293 251.544C20.9759 251.89 21.5706 252.063 22.3135 252.063C23.0062 252.063 23.5371 251.922 23.9062 251.64C24.2754 251.357 24.46 250.972 24.46 250.484C24.46 249.997 24.2891 249.621 23.9473 249.356C23.6055 249.088 22.9857 248.823 22.0879 248.563ZM31.8359 253C31.763 252.854 31.7038 252.594 31.6582 252.221C31.0703 252.831 30.3685 253.137 29.5527 253.137C28.8236 253.137 28.2243 252.932 27.7549 252.521C27.29 252.107 27.0576 251.583 27.0576 250.949C27.0576 250.179 27.3493 249.582 27.9326 249.158C28.5205 248.73 29.3454 248.516 30.4072 248.516H31.6377V247.935C31.6377 247.493 31.5055 247.142 31.2412 246.882C30.9769 246.618 30.5872 246.485 30.0723 246.485C29.6211 246.485 29.2428 246.599 28.9375 246.827C28.6322 247.055 28.4795 247.331 28.4795 247.654H27.208C27.208 247.285 27.3379 246.93 27.5977 246.588C27.862 246.242 28.2174 245.968 28.6641 245.768C29.1152 245.567 29.6097 245.467 30.1475 245.467C30.9997 245.467 31.6673 245.681 32.1504 246.109C32.6335 246.533 32.8841 247.119 32.9023 247.866V251.271C32.9023 251.95 32.9889 252.49 33.1621 252.891V253H31.8359ZM29.7373 252.036C30.1338 252.036 30.5098 251.934 30.8652 251.729C31.2207 251.523 31.4782 251.257 31.6377 250.929V249.411H30.6465C29.097 249.411 28.3223 249.865 28.3223 250.771C28.3223 251.168 28.4544 251.478 28.7188 251.701C28.9831 251.924 29.3226 252.036 29.7373 252.036ZM36.0742 245.604L36.1084 246.424C36.6507 245.786 37.3822 245.467 38.3027 245.467C39.3372 245.467 40.0413 245.863 40.415 246.656C40.6611 246.301 40.9801 246.014 41.3721 245.795C41.7686 245.576 42.2357 245.467 42.7734 245.467C44.3958 245.467 45.2207 246.326 45.248 248.044V253H43.9834V248.119C43.9834 247.59 43.8626 247.196 43.6211 246.937C43.3796 246.672 42.974 246.54 42.4043 246.54C41.9349 246.54 41.5452 246.681 41.2354 246.964C40.9255 247.242 40.7454 247.618 40.6953 248.092V253H39.4238V248.153C39.4238 247.078 38.8975 246.54 37.8447 246.54C37.0153 246.54 36.4479 246.893 36.1426 247.6V253H34.8779V245.604H36.0742ZM53.4102 249.384C53.4102 250.509 53.1527 251.416 52.6377 252.104C52.1227 252.793 51.4255 253.137 50.5459 253.137C49.6481 253.137 48.9417 252.852 48.4268 252.282V255.844H47.1621V245.604H48.3174L48.3789 246.424C48.8939 245.786 49.6094 245.467 50.5254 245.467C51.4141 245.467 52.1159 245.802 52.6309 246.472C53.1504 247.142 53.4102 248.074 53.4102 249.268V249.384ZM52.1455 249.24C52.1455 248.406 51.9678 247.748 51.6123 247.265C51.2568 246.782 50.7692 246.54 50.1494 246.54C49.3838 246.54 48.8096 246.88 48.4268 247.559V251.093C48.805 251.767 49.3838 252.104 50.1631 252.104C50.7692 252.104 51.25 251.865 51.6055 251.387C51.9655 250.904 52.1455 250.188 52.1455 249.24ZM56.3975 253H55.1328V242.5H56.3975V253ZM61.4971 253.137C60.4945 253.137 59.6787 252.809 59.0498 252.152C58.4209 251.492 58.1064 250.61 58.1064 249.507V249.274C58.1064 248.541 58.2454 247.887 58.5234 247.312C58.806 246.734 59.1979 246.283 59.6992 245.959C60.2051 245.631 60.752 245.467 61.3398 245.467C62.3014 245.467 63.0488 245.784 63.582 246.417C64.1152 247.05 64.3818 247.957 64.3818 249.138V249.664H59.3711C59.3893 250.393 59.6012 250.983 60.0068 251.435C60.417 251.881 60.9365 252.104 61.5654 252.104C62.012 252.104 62.3903 252.013 62.7002 251.831C63.0101 251.649 63.2812 251.407 63.5137 251.106L64.2861 251.708C63.6663 252.66 62.7367 253.137 61.4971 253.137ZM61.3398 246.506C60.8294 246.506 60.401 246.693 60.0547 247.066C59.7083 247.436 59.4941 247.955 59.4121 248.625H63.1172V248.529C63.0807 247.887 62.9076 247.39 62.5977 247.039C62.2878 246.684 61.8685 246.506 61.3398 246.506ZM72.4551 248.563C71.3294 248.24 70.5091 247.843 69.9941 247.374C69.4837 246.9 69.2285 246.317 69.2285 245.624C69.2285 244.84 69.5407 244.193 70.165 243.683C70.7939 243.168 71.6097 242.91 72.6123 242.91C73.2959 242.91 73.9043 243.042 74.4375 243.307C74.9753 243.571 75.39 243.936 75.6816 244.4C75.9779 244.865 76.126 245.373 76.126 245.925H74.8066C74.8066 245.323 74.6152 244.852 74.2324 244.51C73.8496 244.163 73.3096 243.99 72.6123 243.99C71.9652 243.99 71.4593 244.134 71.0947 244.421C70.7347 244.703 70.5547 245.098 70.5547 245.604C70.5547 246.009 70.7256 246.353 71.0674 246.636C71.4137 246.914 71.9993 247.169 72.8242 247.401C73.6536 247.634 74.3008 247.891 74.7656 248.174C75.235 248.452 75.5814 248.778 75.8047 249.151C76.0326 249.525 76.1465 249.965 76.1465 250.471C76.1465 251.277 75.832 251.924 75.2031 252.412C74.5742 252.895 73.7334 253.137 72.6807 253.137C71.9971 253.137 71.359 253.007 70.7666 252.747C70.1742 252.483 69.7161 252.123 69.3926 251.667C69.0736 251.211 68.9141 250.694 68.9141 250.115H70.2334C70.2334 250.717 70.4544 251.193 70.8965 251.544C71.3431 251.89 71.9378 252.063 72.6807 252.063C73.3734 252.063 73.9043 251.922 74.2734 251.64C74.6426 251.357 74.8271 250.972 74.8271 250.484C74.8271 249.997 74.6562 249.621 74.3145 249.356C73.9727 249.088 73.3529 248.823 72.4551 248.563ZM79.0107 253H77.7461V245.604H79.0107V253ZM77.6436 243.642C77.6436 243.437 77.7051 243.263 77.8281 243.122C77.9557 242.981 78.1426 242.91 78.3887 242.91C78.6348 242.91 78.8216 242.981 78.9492 243.122C79.0768 243.263 79.1406 243.437 79.1406 243.642C79.1406 243.847 79.0768 244.018 78.9492 244.154C78.8216 244.291 78.6348 244.359 78.3887 244.359C78.1426 244.359 77.9557 244.291 77.8281 244.154C77.7051 244.018 77.6436 243.847 77.6436 243.642ZM82.7568 243.812V245.604H84.1377V246.581H82.7568V251.168C82.7568 251.464 82.8184 251.688 82.9414 251.838C83.0645 251.984 83.2741 252.057 83.5703 252.057C83.7161 252.057 83.9167 252.029 84.1719 251.975V253C83.8392 253.091 83.5156 253.137 83.2012 253.137C82.6361 253.137 82.21 252.966 81.9229 252.624C81.6357 252.282 81.4922 251.797 81.4922 251.168V246.581H80.1455V245.604H81.4922V243.812H82.7568ZM88.6904 253.137C87.6878 253.137 86.8721 252.809 86.2432 252.152C85.6143 251.492 85.2998 250.61 85.2998 249.507V249.274C85.2998 248.541 85.4388 247.887 85.7168 247.312C85.9993 246.734 86.3913 246.283 86.8926 245.959C87.3984 245.631 87.9453 245.467 88.5332 245.467C89.4948 245.467 90.2422 245.784 90.7754 246.417C91.3086 247.05 91.5752 247.957 91.5752 249.138V249.664H86.5645C86.5827 250.393 86.7946 250.983 87.2002 251.435C87.6104 251.881 88.1299 252.104 88.7588 252.104C89.2054 252.104 89.5837 252.013 89.8936 251.831C90.2035 251.649 90.4746 251.407 90.707 251.106L91.4795 251.708C90.8597 252.66 89.93 253.137 88.6904 253.137ZM88.5332 246.506C88.0228 246.506 87.5944 246.693 87.248 247.066C86.9017 247.436 86.6875 247.955 86.6055 248.625H90.3105V248.529C90.2741 247.887 90.1009 247.39 89.791 247.039C89.4811 246.684 89.0618 246.506 88.5332 246.506Z" fill="#F54291"/>
<g clip-path="url(#clip1_0_1)">
<path d="M280.328 135.658C280.354 157.214 272.022 177.94 257.084 193.48C256.183 194.423 255.258 195.343 254.309 196.241C252.863 197.616 251.368 198.939 249.825 200.208C235.387 212.102 217.364 218.786 198.662 219.181C198.039 219.195 197.413 219.203 196.785 219.203C181.87 219.203 163.11 211.236 146.086 200.208C144.677 199.295 143.281 198.362 141.898 197.407C141.251 196.965 140.608 196.517 139.967 196.062C133.401 191.425 127.168 186.334 121.315 180.824C117.483 177.228 113.89 173.385 110.558 169.321C97.4764 153.185 94.5912 138.646 113.241 135.658C115.449 135.305 117.592 134.928 119.669 134.527C122.679 133.948 125.56 133.324 128.311 132.653C132.017 131.752 135.499 130.775 138.756 129.723C139.852 129.37 140.923 129.01 141.968 128.643C157.427 123.214 167.773 116.134 174.816 108.451C176.01 107.151 177.112 105.835 178.12 104.503C179.662 102.476 181.063 100.346 182.312 98.1262C184.037 95.0425 185.485 91.8124 186.641 88.4735L186.705 88.2901C192.308 72.1262 190.603 57.1334 196.785 52.1154C223.211 30.6631 256.11 61.2131 271.552 97.2397C272.33 99.0551 273.063 100.881 273.748 102.719C274.056 103.539 274.354 104.362 274.64 105.185C275.392 107.332 276.075 109.485 276.688 111.642C276.923 112.465 277.147 113.288 277.36 114.109C277.588 114.996 277.807 115.88 278.009 116.764C279.512 123.237 280.328 129.622 280.328 135.658Z" fill="#F2F2F2"/>
<path d="M198.662 219.181C198.039 219.196 197.413 219.203 196.785 219.203C181.87 219.203 163.11 211.236 146.086 200.208C144.677 199.295 143.281 198.362 141.898 197.407L143.111 190.023L179.843 185.146L198.279 199.243L198.662 219.181Z" fill="#2F2E41"/>
<path d="M200.43 87.3378H195.196C195.034 87.3379 194.878 87.4023 194.764 87.517C194.649 87.6316 194.584 87.787 194.584 87.9492V93.1858C194.584 93.266 194.6 93.3453 194.631 93.4193C194.662 93.4933 194.707 93.5606 194.764 93.6171C194.821 93.6737 194.888 93.7185 194.962 93.749C195.036 93.7795 195.116 93.7951 195.196 93.7949H200.43C200.592 93.7949 200.747 93.7309 200.862 93.6167C200.976 93.5025 201.041 93.3476 201.041 93.1858V87.9492C201.041 87.7872 200.976 87.6319 200.862 87.5174C200.747 87.4028 200.592 87.3383 200.43 87.3378V87.3378Z" fill="white"/>
<path d="M200.43 96.2616H195.196C195.034 96.2617 194.878 96.3261 194.764 96.4407C194.649 96.5554 194.584 96.7108 194.584 96.873V102.11C194.584 102.19 194.6 102.269 194.631 102.343C194.662 102.417 194.707 102.484 194.764 102.541C194.821 102.597 194.888 102.642 194.962 102.673C195.036 102.703 195.116 102.719 195.196 102.719H200.43C200.592 102.719 200.747 102.655 200.862 102.54C200.976 102.426 201.041 102.271 201.041 102.11V96.873C201.041 96.711 200.976 96.5557 200.862 96.4412C200.747 96.3266 200.592 96.262 200.43 96.2616Z" fill="#E6E6E6"/>
<path d="M200.43 105.185H195.196C195.034 105.185 194.878 105.25 194.764 105.364C194.649 105.479 194.584 105.635 194.584 105.797V111.031C194.584 111.111 194.6 111.191 194.631 111.265C194.661 111.339 194.706 111.407 194.763 111.464C194.82 111.521 194.887 111.566 194.962 111.596C195.036 111.627 195.115 111.643 195.196 111.642H200.43C200.592 111.642 200.748 111.578 200.862 111.463C200.977 111.349 201.041 111.193 201.041 111.031V105.797C201.041 105.635 200.976 105.479 200.862 105.365C200.747 105.25 200.592 105.186 200.43 105.185V105.185Z" fill="#E6E6E6"/>
<path d="M201.032 114.612C201.006 114.471 200.932 114.344 200.822 114.252C200.712 114.16 200.573 114.11 200.43 114.109H195.196C195.034 114.109 194.878 114.174 194.764 114.288C194.649 114.403 194.584 114.558 194.584 114.72V119.955C194.584 120.035 194.6 120.115 194.631 120.189C194.661 120.263 194.706 120.331 194.763 120.387C194.82 120.444 194.887 120.489 194.962 120.52C195.036 120.551 195.115 120.566 195.196 120.566H200.43C200.592 120.566 200.748 120.502 200.862 120.387C200.977 120.272 201.041 120.117 201.041 119.955V114.72C201.042 114.684 201.039 114.648 201.032 114.612V114.612Z" fill="#E6E6E6"/>
<path d="M200.668 123.08C200.592 123.049 200.512 123.033 200.43 123.033H195.196C195.115 123.033 195.036 123.048 194.962 123.079C194.887 123.11 194.82 123.155 194.763 123.212C194.706 123.268 194.661 123.336 194.631 123.41C194.6 123.484 194.584 123.564 194.584 123.644V128.879C194.584 128.959 194.6 129.039 194.63 129.113C194.661 129.187 194.706 129.255 194.763 129.312C194.819 129.369 194.887 129.414 194.961 129.444C195.036 129.475 195.115 129.49 195.196 129.49H200.43C200.592 129.49 200.748 129.425 200.862 129.311C200.977 129.196 201.041 129.041 201.041 128.879V123.644C201.041 123.524 201.006 123.406 200.939 123.306C200.873 123.206 200.778 123.127 200.668 123.08Z" fill="#E6E6E6"/>
<path d="M211.425 87.3378H206.191C206.029 87.3379 205.874 87.4023 205.759 87.517C205.644 87.6316 205.58 87.787 205.58 87.9492V93.1858C205.58 93.266 205.596 93.3453 205.627 93.4193C205.657 93.4933 205.702 93.5606 205.759 93.6171C205.816 93.6737 205.883 93.7185 205.957 93.749C206.032 93.7795 206.111 93.7951 206.191 93.7949H211.425C211.587 93.7949 211.742 93.7309 211.857 93.6167C211.972 93.5025 212.036 93.3476 212.037 93.1858V87.9492C212.036 87.7872 211.972 87.6319 211.857 87.5174C211.743 87.4028 211.587 87.3383 211.425 87.3378V87.3378Z" fill="#E6E6E6"/>
<path d="M211.425 96.2616H206.191C206.029 96.2617 205.874 96.3261 205.759 96.4407C205.644 96.5554 205.58 96.7108 205.58 96.873V102.11C205.58 102.19 205.596 102.269 205.627 102.343C205.657 102.417 205.702 102.484 205.759 102.541C205.816 102.597 205.883 102.642 205.957 102.673C206.032 102.703 206.111 102.719 206.191 102.719H211.425C211.587 102.719 211.742 102.655 211.857 102.54C211.972 102.426 212.036 102.271 212.037 102.11V96.873C212.036 96.711 211.972 96.5557 211.857 96.4412C211.743 96.3266 211.587 96.262 211.425 96.2616Z" fill="#0A97B0"/>
<path d="M211.425 105.185H206.191C206.029 105.185 205.874 105.25 205.759 105.364C205.644 105.479 205.58 105.635 205.58 105.797V111.031C205.58 111.111 205.595 111.191 205.626 111.265C205.657 111.339 205.702 111.407 205.758 111.464C205.815 111.521 205.883 111.566 205.957 111.596C206.031 111.627 206.111 111.643 206.191 111.642H211.425C211.588 111.642 211.743 111.578 211.858 111.463C211.972 111.349 212.037 111.193 212.037 111.031V105.797C212.036 105.635 211.972 105.479 211.857 105.365C211.743 105.25 211.587 105.186 211.425 105.185V105.185Z" fill="#0A97B0"/>
<path d="M211.425 114.109H206.191C206.063 114.109 205.938 114.15 205.834 114.225C205.73 114.3 205.653 114.406 205.613 114.528C205.591 114.59 205.58 114.655 205.58 114.72V119.955C205.58 120.035 205.595 120.115 205.626 120.189C205.657 120.263 205.702 120.331 205.758 120.387C205.815 120.444 205.883 120.489 205.957 120.52C206.031 120.551 206.111 120.566 206.191 120.566H211.425C211.588 120.566 211.743 120.502 211.858 120.387C211.972 120.272 212.037 120.117 212.037 119.955V114.72C212.036 114.558 211.972 114.403 211.857 114.289C211.743 114.174 211.587 114.11 211.425 114.109V114.109Z" fill="#0A97B0"/>
<path d="M211.425 123.033H206.191C206.111 123.033 206.031 123.048 205.957 123.079C205.883 123.11 205.815 123.155 205.758 123.212C205.702 123.268 205.657 123.336 205.626 123.41C205.595 123.484 205.58 123.564 205.58 123.644V128.879C205.58 128.959 205.595 129.038 205.626 129.113C205.657 129.187 205.702 129.254 205.758 129.311C205.815 129.368 205.883 129.413 205.957 129.444C206.031 129.474 206.111 129.49 206.191 129.49H211.425C211.588 129.49 211.743 129.425 211.858 129.311C211.972 129.196 212.037 129.041 212.037 128.879V123.644C212.037 123.482 211.972 123.327 211.858 123.212C211.743 123.097 211.588 123.033 211.425 123.033V123.033Z" fill="#E6E6E6"/>
<path d="M222.421 87.3378H217.187C217.024 87.3379 216.869 87.4023 216.754 87.517C216.64 87.6316 216.575 87.787 216.575 87.9492V93.1858C216.575 93.266 216.591 93.3453 216.622 93.4193C216.653 93.4933 216.698 93.5606 216.755 93.6171C216.811 93.6737 216.879 93.7185 216.953 93.749C217.027 93.7795 217.106 93.7951 217.187 93.7949H222.421C222.583 93.7949 222.738 93.7309 222.852 93.6167C222.967 93.5025 223.032 93.3476 223.032 93.1858V87.9492C223.032 87.7872 222.967 87.6319 222.853 87.5174C222.738 87.4028 222.583 87.3383 222.421 87.3378V87.3378Z" fill="#0A97B0"/>
<path d="M222.421 96.2616H217.187C217.024 96.2617 216.869 96.3261 216.754 96.4407C216.64 96.5554 216.575 96.7108 216.575 96.873V102.11C216.575 102.19 216.591 102.269 216.622 102.343C216.653 102.417 216.698 102.484 216.755 102.541C216.811 102.597 216.879 102.642 216.953 102.673C217.027 102.703 217.106 102.719 217.187 102.719H222.421C222.583 102.719 222.738 102.655 222.852 102.54C222.967 102.426 223.032 102.271 223.032 102.11V96.873C223.032 96.711 222.967 96.5557 222.853 96.4412C222.738 96.3266 222.583 96.262 222.421 96.2616Z" fill="#0A97B0"/>
<path d="M222.421 105.185H217.187C217.024 105.185 216.869 105.25 216.754 105.364C216.64 105.479 216.575 105.635 216.575 105.797V111.031C216.575 111.111 216.591 111.191 216.621 111.265C216.652 111.339 216.697 111.407 216.754 111.464C216.811 111.521 216.878 111.566 216.952 111.596C217.027 111.627 217.106 111.643 217.187 111.642H222.421C222.583 111.642 222.738 111.578 222.853 111.463C222.968 111.349 223.032 111.193 223.032 111.031V105.797C223.032 105.635 222.967 105.479 222.853 105.365C222.738 105.25 222.583 105.186 222.421 105.185V105.185Z" fill="#E6E6E6"/>
<path d="M222.421 114.109H217.187C217.024 114.109 216.869 114.174 216.754 114.288C216.64 114.403 216.575 114.558 216.575 114.72V119.955C216.575 120.035 216.591 120.115 216.621 120.189C216.652 120.263 216.697 120.331 216.754 120.387C216.811 120.444 216.878 120.489 216.952 120.52C217.027 120.551 217.106 120.566 217.187 120.566H222.421C222.583 120.566 222.738 120.502 222.853 120.387C222.968 120.272 223.032 120.117 223.032 119.955V114.72C223.032 114.558 222.967 114.403 222.853 114.289C222.738 114.174 222.583 114.11 222.421 114.109V114.109Z" fill="#0A97B0"/>
<path d="M222.421 123.033H217.187C217.106 123.033 217.027 123.048 216.952 123.079C216.878 123.11 216.811 123.155 216.754 123.212C216.697 123.268 216.652 123.336 216.621 123.41C216.591 123.484 216.575 123.564 216.575 123.644V128.879C216.575 128.959 216.591 129.038 216.621 129.113C216.652 129.187 216.697 129.254 216.754 129.311C216.811 129.368 216.878 129.413 216.952 129.444C217.027 129.474 217.106 129.49 217.187 129.49H222.421C222.583 129.49 222.738 129.425 222.853 129.311C222.968 129.196 223.032 129.041 223.032 128.879V123.644C223.032 123.482 222.968 123.327 222.853 123.212C222.738 123.097 222.583 123.033 222.421 123.033V123.033Z" fill="#0A97B0"/>
<path d="M233.416 87.3378H228.182C228.02 87.3379 227.864 87.4023 227.75 87.517C227.635 87.6316 227.571 87.787 227.571 87.9492V93.1858C227.571 93.266 227.587 93.3453 227.617 93.4193C227.648 93.4934 227.693 93.5606 227.75 93.6171C227.807 93.6737 227.874 93.7185 227.948 93.749C228.022 93.7795 228.102 93.7951 228.182 93.7949H233.416C233.578 93.7949 233.733 93.7309 233.848 93.6167C233.962 93.5025 234.027 93.3476 234.028 93.1858V87.9492C234.027 87.7872 233.963 87.6319 233.848 87.5174C233.733 87.4028 233.578 87.3383 233.416 87.3378V87.3378Z" fill="#0A97B0"/>
<path d="M233.416 96.2616H228.182C228.02 96.2617 227.864 96.3261 227.75 96.4407C227.635 96.5554 227.571 96.7108 227.571 96.873V102.11C227.571 102.19 227.587 102.269 227.617 102.343C227.648 102.417 227.693 102.484 227.75 102.541C227.807 102.597 227.874 102.642 227.948 102.673C228.022 102.703 228.102 102.719 228.182 102.719H233.416C233.578 102.719 233.733 102.655 233.848 102.54C233.962 102.426 234.027 102.271 234.028 102.11V96.873C234.027 96.711 233.963 96.5557 233.848 96.4412C233.734 96.3266 233.578 96.262 233.416 96.2616V96.2616Z" fill="white"/>
<path d="M233.416 105.185H228.182C228.02 105.185 227.864 105.25 227.75 105.364C227.635 105.479 227.571 105.635 227.571 105.797V111.031C227.57 111.111 227.586 111.191 227.617 111.265C227.647 111.339 227.692 111.407 227.749 111.464C227.806 111.521 227.874 111.566 227.948 111.596C228.022 111.627 228.102 111.643 228.182 111.642H233.416C233.578 111.642 233.734 111.578 233.848 111.463C233.963 111.349 234.028 111.193 234.028 111.031V105.797C234.027 105.635 233.963 105.479 233.848 105.365C233.734 105.25 233.578 105.186 233.416 105.185V105.185Z" fill="white"/>
<path d="M233.416 114.109H228.182C228.02 114.109 227.864 114.174 227.75 114.288C227.635 114.403 227.571 114.558 227.571 114.72V119.955C227.57 120.035 227.586 120.115 227.617 120.189C227.647 120.263 227.692 120.331 227.749 120.387C227.806 120.444 227.874 120.489 227.948 120.52C228.022 120.551 228.102 120.566 228.182 120.566H233.416C233.578 120.566 233.734 120.502 233.848 120.387C233.963 120.272 234.028 120.117 234.028 119.955V114.72C234.027 114.558 233.963 114.403 233.848 114.289C233.734 114.174 233.578 114.11 233.416 114.109V114.109Z" fill="#E6E6E6"/>
<path d="M233.416 123.033H228.182C228.102 123.033 228.022 123.048 227.948 123.079C227.874 123.11 227.806 123.155 227.749 123.212C227.692 123.268 227.647 123.336 227.617 123.41C227.586 123.484 227.57 123.564 227.571 123.644V128.879C227.57 128.959 227.586 129.038 227.617 129.113C227.647 129.187 227.692 129.254 227.749 129.311C227.806 129.368 227.874 129.413 227.948 129.444C228.022 129.474 228.102 129.49 228.182 129.49H233.416C233.578 129.49 233.734 129.425 233.849 129.311C233.963 129.196 234.028 129.041 234.028 128.879V123.644C234.028 123.482 233.963 123.327 233.848 123.212C233.734 123.097 233.578 123.033 233.416 123.033V123.033Z" fill="#0A97B0"/>
<path d="M244.412 87.3378H239.175C239.013 87.3384 238.858 87.403 238.744 87.5176C238.63 87.6322 238.566 87.7874 238.566 87.9492V93.1859C238.566 93.3474 238.63 93.5023 238.744 93.6165C238.859 93.7307 239.013 93.7949 239.175 93.7949H244.412C244.573 93.795 244.729 93.7309 244.843 93.6167C244.958 93.5026 245.022 93.3476 245.023 93.1859V87.9492C245.023 87.7872 244.958 87.6319 244.843 87.5174C244.729 87.4028 244.574 87.3383 244.412 87.3378Z" fill="white"/>
<path d="M244.412 96.2616H239.175C239.013 96.2621 238.858 96.3268 238.744 96.4414C238.63 96.556 238.566 96.7112 238.566 96.873V102.11C238.566 102.271 238.63 102.426 238.744 102.54C238.859 102.654 239.013 102.719 239.175 102.719H244.412C244.573 102.719 244.729 102.655 244.843 102.54C244.958 102.426 245.022 102.271 245.023 102.11V96.873C245.023 96.711 244.958 96.5557 244.843 96.4412C244.729 96.3266 244.574 96.262 244.412 96.2616V96.2616Z" fill="white"/>
<path d="M244.412 105.185H239.175C239.013 105.186 238.858 105.251 238.744 105.365C238.63 105.48 238.566 105.635 238.566 105.797V111.031C238.566 111.111 238.581 111.191 238.612 111.265C238.642 111.339 238.687 111.406 238.744 111.463C238.8 111.52 238.867 111.565 238.941 111.596C239.015 111.626 239.095 111.642 239.175 111.642H244.412C244.574 111.642 244.729 111.578 244.844 111.463C244.959 111.349 245.023 111.193 245.023 111.031V105.797C245.023 105.635 244.958 105.479 244.843 105.365C244.729 105.25 244.574 105.186 244.412 105.185V105.185Z" fill="white"/>
<path d="M244.412 114.109H239.175C239.013 114.11 238.858 114.174 238.744 114.289C238.63 114.404 238.566 114.559 238.566 114.72V119.955C238.566 120.035 238.581 120.114 238.612 120.188C238.642 120.263 238.687 120.33 238.744 120.387C238.8 120.444 238.867 120.489 238.941 120.519C239.015 120.55 239.095 120.566 239.175 120.566H244.412C244.574 120.566 244.729 120.502 244.844 120.387C244.959 120.272 245.023 120.117 245.023 119.955V114.72C245.023 114.558 244.958 114.403 244.843 114.289C244.729 114.174 244.574 114.11 244.412 114.109V114.109Z" fill="#0A97B0"/>
<path d="M244.412 123.033H239.175C239.095 123.033 239.015 123.049 238.941 123.08C238.867 123.11 238.8 123.155 238.744 123.212C238.687 123.269 238.642 123.336 238.612 123.411C238.581 123.485 238.566 123.564 238.566 123.644V128.879C238.566 128.959 238.581 129.038 238.612 129.112C238.642 129.186 238.687 129.254 238.744 129.311C238.8 129.367 238.867 129.412 238.941 129.443C239.015 129.474 239.095 129.49 239.175 129.49H244.412C244.574 129.49 244.729 129.425 244.844 129.311C244.959 129.196 245.023 129.041 245.023 128.879V123.644C245.023 123.482 244.959 123.327 244.844 123.212C244.729 123.097 244.574 123.033 244.412 123.033V123.033Z" fill="#E6E6E6"/>
<path d="M255.407 87.3378H250.17C250.009 87.3384 249.854 87.403 249.74 87.5176C249.625 87.6322 249.561 87.7874 249.561 87.9492V93.1859C249.561 93.3474 249.626 93.5023 249.74 93.6165C249.854 93.7307 250.009 93.7949 250.17 93.7949H255.407C255.569 93.795 255.724 93.7309 255.839 93.6167C255.953 93.5026 256.018 93.3476 256.018 93.1859V87.9492C256.018 87.7872 255.953 87.6319 255.839 87.5174C255.724 87.4028 255.569 87.3383 255.407 87.3378V87.3378Z" fill="white"/>
<path d="M255.407 96.2616H250.17C250.009 96.2621 249.854 96.3268 249.739 96.4414C249.625 96.556 249.561 96.7112 249.561 96.873V102.11C249.561 102.271 249.626 102.426 249.74 102.54C249.854 102.654 250.009 102.719 250.17 102.719H255.407C255.569 102.719 255.724 102.655 255.839 102.54C255.953 102.426 256.018 102.271 256.018 102.11V96.873C256.018 96.711 255.953 96.5557 255.839 96.4412C255.724 96.3266 255.569 96.2621 255.407 96.2616V96.2616Z" fill="white"/>
<path d="M255.407 105.185H250.17C250.009 105.186 249.854 105.251 249.739 105.365C249.625 105.48 249.561 105.635 249.561 105.797V111.031C249.561 111.111 249.577 111.191 249.607 111.265C249.638 111.339 249.682 111.406 249.739 111.463C249.796 111.52 249.863 111.565 249.937 111.596C250.011 111.626 250.09 111.642 250.17 111.642H255.407C255.569 111.642 255.725 111.578 255.839 111.463C255.954 111.349 256.018 111.193 256.018 111.031V105.797C256.018 105.635 255.953 105.479 255.839 105.365C255.724 105.25 255.569 105.186 255.407 105.185V105.185Z" fill="#0A97B0"/>
<path d="M255.407 114.109H250.17C250.009 114.11 249.854 114.174 249.74 114.289C249.625 114.404 249.561 114.559 249.561 114.72V119.955C249.561 120.035 249.577 120.114 249.607 120.188C249.638 120.263 249.682 120.33 249.739 120.387C249.796 120.444 249.863 120.489 249.937 120.519C250.011 120.55 250.09 120.566 250.17 120.566H255.407C255.569 120.566 255.725 120.502 255.839 120.387C255.954 120.272 256.018 120.117 256.018 119.955V114.72C256.018 114.558 255.953 114.403 255.839 114.289C255.724 114.174 255.569 114.11 255.407 114.109V114.109Z" fill="#E6E6E6"/>
<path d="M255.407 123.033H250.17C250.09 123.033 250.011 123.049 249.937 123.08C249.863 123.11 249.796 123.155 249.739 123.212C249.682 123.269 249.638 123.336 249.607 123.411C249.577 123.485 249.561 123.564 249.561 123.644V128.879C249.561 128.959 249.577 129.038 249.607 129.112C249.638 129.186 249.682 129.254 249.739 129.311C249.796 129.367 249.863 129.412 249.937 129.443C250.011 129.474 250.09 129.49 250.17 129.49H255.407C255.569 129.49 255.725 129.425 255.839 129.311C255.954 129.196 256.018 129.041 256.018 128.879V123.644C256.018 123.482 255.954 123.327 255.839 123.212C255.725 123.097 255.569 123.033 255.407 123.033Z" fill="white"/>
<path d="M266.402 87.3378H261.166C261.004 87.3384 260.849 87.403 260.735 87.5176C260.621 87.6322 260.557 87.7874 260.557 87.9492V93.1859C260.557 93.3474 260.621 93.5023 260.735 93.6165C260.849 93.7307 261.004 93.7949 261.166 93.7949H266.402C266.564 93.795 266.719 93.7309 266.834 93.6167C266.949 93.5026 267.013 93.3476 267.014 93.1859V87.9492C267.013 87.7872 266.949 87.6319 266.834 87.5174C266.72 87.4028 266.564 87.3383 266.402 87.3378V87.3378Z" fill="#0A97B0"/>
<path d="M266.402 96.2616H261.166C261.004 96.2621 260.849 96.3268 260.735 96.4414C260.621 96.556 260.557 96.7112 260.557 96.873V102.11C260.557 102.271 260.621 102.426 260.735 102.54C260.849 102.654 261.004 102.719 261.166 102.719H266.402C266.564 102.719 266.719 102.655 266.834 102.54C266.949 102.426 267.013 102.271 267.014 102.11V96.873C267.013 96.711 266.949 96.5557 266.834 96.4412C266.72 96.3266 266.564 96.2621 266.402 96.2616Z" fill="#0A97B0"/>
<path d="M266.402 105.185H261.166C261.004 105.186 260.849 105.251 260.735 105.365C260.621 105.48 260.557 105.635 260.557 105.797V111.031C260.556 111.111 260.572 111.191 260.603 111.265C260.633 111.339 260.678 111.406 260.734 111.463C260.791 111.52 260.858 111.565 260.932 111.596C261.006 111.626 261.086 111.642 261.166 111.642H266.402C266.565 111.642 266.72 111.578 266.835 111.463C266.949 111.349 267.014 111.193 267.014 111.031V105.797C267.013 105.635 266.949 105.479 266.834 105.365C266.72 105.25 266.564 105.186 266.402 105.185V105.185Z" fill="#E6E6E6"/>
<path d="M266.402 114.109H261.166C261.004 114.11 260.849 114.174 260.735 114.289C260.621 114.404 260.557 114.559 260.557 114.72V119.955C260.556 120.035 260.572 120.114 260.603 120.188C260.633 120.263 260.678 120.33 260.734 120.387C260.791 120.444 260.858 120.489 260.932 120.519C261.006 120.55 261.086 120.566 261.166 120.566H266.402C266.565 120.566 266.72 120.502 266.835 120.387C266.949 120.272 267.014 120.117 267.014 119.955V114.72C267.013 114.558 266.949 114.403 266.834 114.289C266.72 114.174 266.564 114.11 266.402 114.109V114.109Z" fill="white"/>
<path d="M266.402 123.033H261.166C261.086 123.033 261.006 123.049 260.932 123.08C260.858 123.11 260.791 123.155 260.734 123.212C260.678 123.269 260.633 123.336 260.603 123.411C260.572 123.485 260.556 123.564 260.557 123.644V128.879C260.556 128.959 260.572 129.038 260.603 129.112C260.633 129.186 260.678 129.254 260.734 129.311C260.791 129.367 260.858 129.412 260.932 129.443C261.006 129.474 261.086 129.49 261.166 129.49H266.402C266.565 129.49 266.72 129.425 266.835 129.311C266.949 129.196 267.014 129.041 267.014 128.879V123.644C267.014 123.482 266.949 123.327 266.835 123.212C266.72 123.097 266.565 123.033 266.402 123.033Z" fill="#0A97B0"/>
<path d="M277.398 87.3378H272.161C271.999 87.3384 271.844 87.403 271.73 87.5176C271.616 87.6322 271.552 87.7874 271.552 87.9492V93.1859C271.552 93.3474 271.616 93.5023 271.731 93.6165C271.845 93.7307 272 93.7949 272.161 93.7949H277.398C277.56 93.795 277.715 93.7309 277.829 93.6167C277.944 93.5026 278.009 93.3476 278.009 93.1859V87.9492C278.009 87.7872 277.944 87.6319 277.83 87.5174C277.715 87.4028 277.56 87.3383 277.398 87.3378Z" fill="#0A97B0"/>
<path d="M277.398 96.2616H272.161C271.999 96.2621 271.844 96.3268 271.73 96.4414C271.616 96.556 271.552 96.7112 271.552 96.873V102.11C271.552 102.271 271.616 102.426 271.731 102.54C271.845 102.654 272 102.719 272.161 102.719H277.398C277.56 102.719 277.715 102.655 277.829 102.54C277.944 102.426 278.009 102.271 278.009 102.11V96.873C278.009 96.711 277.944 96.5557 277.83 96.4412C277.715 96.3266 277.56 96.2621 277.398 96.2616V96.2616Z" fill="#0A97B0"/>
<path d="M277.398 105.185H272.161C271.999 105.186 271.844 105.251 271.73 105.365C271.616 105.48 271.552 105.635 271.552 105.797V111.031C271.552 111.111 271.567 111.191 271.598 111.265C271.628 111.339 271.673 111.406 271.73 111.463C271.786 111.52 271.854 111.565 271.928 111.596C272.002 111.626 272.081 111.642 272.161 111.642H277.398C277.56 111.642 277.715 111.578 277.83 111.463C277.945 111.349 278.009 111.193 278.009 111.031V105.797C278.009 105.635 277.944 105.479 277.83 105.365C277.715 105.25 277.56 105.186 277.398 105.185Z" fill="#E6E6E6"/>
<path d="M277.398 114.109H272.161C271.999 114.11 271.844 114.174 271.73 114.289C271.616 114.404 271.552 114.559 271.552 114.72V119.955C271.552 120.035 271.567 120.114 271.598 120.188C271.628 120.263 271.673 120.33 271.73 120.387C271.786 120.444 271.854 120.489 271.928 120.519C272.002 120.55 272.081 120.566 272.161 120.566H277.398C277.56 120.566 277.715 120.502 277.83 120.387C277.945 120.272 278.009 120.117 278.009 119.955V114.72C278.009 114.558 277.944 114.403 277.83 114.289C277.715 114.174 277.56 114.11 277.398 114.109V114.109Z" fill="#0A97B0"/>
<path d="M277.398 123.033H272.161C272.081 123.033 272.002 123.049 271.928 123.08C271.854 123.11 271.786 123.155 271.73 123.212C271.673 123.269 271.628 123.336 271.598 123.411C271.567 123.485 271.552 123.564 271.552 123.644V128.879C271.552 128.959 271.567 129.038 271.598 129.112C271.628 129.186 271.673 129.254 271.73 129.311C271.786 129.367 271.854 129.412 271.928 129.443C272.002 129.474 272.081 129.49 272.161 129.49H277.398C277.56 129.49 277.715 129.425 277.83 129.311C277.945 129.196 278.009 129.041 278.009 128.879V123.644C278.009 123.482 277.945 123.327 277.83 123.212C277.715 123.097 277.56 123.033 277.398 123.033V123.033Z" fill="#0A97B0"/>
<path d="M288.393 87.3378H283.157C282.995 87.3384 282.84 87.403 282.726 87.5176C282.612 87.6322 282.547 87.7874 282.548 87.9492V93.1859C282.548 93.3474 282.612 93.5023 282.726 93.6165C282.84 93.7307 282.995 93.7949 283.157 93.7949H288.393C288.555 93.795 288.71 93.7309 288.825 93.6167C288.939 93.5026 289.004 93.3476 289.005 93.1859V87.9492C289.004 87.7872 288.94 87.6319 288.825 87.5174C288.71 87.4028 288.555 87.3383 288.393 87.3378V87.3378Z" fill="#E6E6E6"/>
<path d="M288.393 96.2616H283.157C282.995 96.2621 282.84 96.3268 282.726 96.4414C282.612 96.556 282.547 96.7112 282.548 96.873V102.11C282.548 102.271 282.612 102.426 282.726 102.54C282.84 102.654 282.995 102.719 283.157 102.719H288.393C288.555 102.719 288.71 102.655 288.825 102.54C288.939 102.426 289.004 102.271 289.005 102.11V96.873C289.004 96.711 288.94 96.5557 288.825 96.4412C288.71 96.3266 288.555 96.2621 288.393 96.2616V96.2616Z" fill="#0A97B0"/>
<path d="M288.393 105.185H283.157C282.995 105.186 282.84 105.251 282.726 105.365C282.612 105.48 282.547 105.635 282.548 105.797V111.031C282.547 111.111 282.563 111.191 282.593 111.265C282.624 111.339 282.669 111.406 282.725 111.463C282.782 111.52 282.849 111.565 282.923 111.596C282.997 111.626 283.076 111.642 283.157 111.642H288.393C288.555 111.642 288.711 111.578 288.825 111.463C288.94 111.349 289.005 111.193 289.005 111.031V105.797C289.004 105.635 288.94 105.479 288.825 105.365C288.71 105.25 288.555 105.186 288.393 105.185V105.185Z" fill="#0A97B0"/>
<path d="M288.393 114.109H283.157C282.995 114.11 282.84 114.174 282.726 114.289C282.612 114.404 282.547 114.559 282.548 114.72V119.955C282.547 120.035 282.563 120.114 282.593 120.188C282.624 120.263 282.669 120.33 282.725 120.387C282.782 120.444 282.849 120.489 282.923 120.519C282.997 120.55 283.076 120.566 283.157 120.566H288.393C288.555 120.566 288.711 120.502 288.825 120.387C288.94 120.272 289.005 120.117 289.005 119.955V114.72C289.004 114.558 288.94 114.403 288.825 114.289C288.71 114.174 288.555 114.11 288.393 114.109V114.109Z" fill="#0A97B0"/>
<path d="M288.393 123.033H283.157C283.076 123.033 282.997 123.049 282.923 123.08C282.849 123.11 282.782 123.155 282.725 123.212C282.669 123.269 282.624 123.336 282.593 123.411C282.563 123.485 282.547 123.564 282.548 123.644V128.879C282.547 128.959 282.563 129.038 282.593 129.112C282.624 129.186 282.669 129.254 282.725 129.311C282.782 129.367 282.849 129.412 282.923 129.443C282.997 129.474 283.076 129.49 283.157 129.49H288.393C288.555 129.49 288.711 129.425 288.825 129.311C288.94 129.196 289.005 129.041 289.005 128.879V123.644C289.005 123.482 288.94 123.327 288.825 123.212C288.711 123.097 288.555 123.033 288.393 123.033V123.033Z" fill="#E6E6E6"/>
<path d="M299.389 87.3378H294.152C293.99 87.3384 293.835 87.403 293.721 87.5176C293.607 87.6322 293.543 87.7874 293.543 87.9492V93.1859C293.543 93.3474 293.607 93.5023 293.721 93.6165C293.836 93.7307 293.99 93.7949 294.152 93.7949H299.389C299.55 93.795 299.706 93.7309 299.82 93.6167C299.935 93.5026 299.999 93.3476 300 93.1859V87.9492C300 87.7872 299.935 87.6319 299.82 87.5174C299.706 87.4028 299.551 87.3383 299.389 87.3378V87.3378Z" fill="#E6E6E6"/>
<path d="M299.389 96.2616H294.152C293.99 96.2621 293.835 96.3268 293.721 96.4414C293.607 96.556 293.543 96.7112 293.543 96.873V102.11C293.543 102.271 293.607 102.426 293.721 102.54C293.836 102.654 293.99 102.719 294.152 102.719H299.389C299.55 102.719 299.706 102.655 299.82 102.54C299.935 102.426 299.999 102.271 300 102.11V96.873C300 96.711 299.935 96.5557 299.82 96.4412C299.706 96.3266 299.551 96.2621 299.389 96.2616V96.2616Z" fill="#E6E6E6"/>
<path d="M299.389 105.185H294.152C293.99 105.186 293.835 105.251 293.721 105.365C293.607 105.48 293.543 105.635 293.543 105.797V111.031C293.543 111.111 293.558 111.191 293.589 111.265C293.619 111.339 293.664 111.406 293.721 111.463C293.777 111.52 293.844 111.565 293.918 111.596C293.992 111.626 294.072 111.642 294.152 111.642H299.389C299.551 111.642 299.706 111.578 299.821 111.463C299.935 111.349 300 111.193 300 111.031V105.797C300 105.635 299.935 105.479 299.82 105.365C299.706 105.25 299.551 105.186 299.389 105.185V105.185Z" fill="#0A97B0"/>
<path d="M299.389 114.109H294.152C293.99 114.11 293.835 114.174 293.721 114.289C293.607 114.404 293.543 114.559 293.543 114.72V119.955C293.543 120.035 293.558 120.114 293.589 120.188C293.619 120.263 293.664 120.33 293.721 120.387C293.777 120.444 293.844 120.489 293.918 120.519C293.992 120.55 294.072 120.566 294.152 120.566H299.389C299.551 120.566 299.706 120.502 299.821 120.387C299.935 120.272 300 120.117 300 119.955V114.72C300 114.558 299.935 114.403 299.82 114.289C299.706 114.174 299.551 114.11 299.389 114.109V114.109Z" fill="#E6E6E6"/>
<path d="M299.389 123.033H294.152C294.072 123.033 293.992 123.049 293.918 123.08C293.844 123.11 293.777 123.155 293.721 123.212C293.664 123.269 293.619 123.336 293.589 123.411C293.558 123.485 293.543 123.564 293.543 123.644V128.879C293.543 128.959 293.558 129.038 293.589 129.112C293.619 129.186 293.664 129.254 293.721 129.311C293.777 129.367 293.844 129.412 293.918 129.443C293.992 129.474 294.072 129.49 294.152 129.49H299.389C299.551 129.49 299.706 129.425 299.821 129.311C299.935 129.196 300 129.041 300 128.879V123.644C300 123.482 299.935 123.327 299.821 123.212C299.706 123.097 299.551 123.033 299.389 123.033V123.033Z" fill="#E6E6E6"/>
<path d="M179.031 200.208H178.885L179.01 200.191L179.031 200.208Z" fill="#2F2E41"/>
<path d="M166.502 102.623C175.375 102.623 182.568 95.4306 182.568 86.5579C182.568 77.6851 175.375 70.4923 166.502 70.4923C157.63 70.4923 150.437 77.6851 150.437 86.5579C150.437 95.4306 157.63 102.623 166.502 102.623Z" fill="#FFB6B6"/>
<path d="M180.572 74.7789C180.572 74.7789 184.773 66.7461 175.529 66.0158C175.529 66.0158 167.648 58.8669 159.616 64.7089C159.616 64.7089 155.234 64.7089 152.838 69.6671C152.838 69.6671 149.392 68.3602 148.635 71.8579C148.635 71.8579 146.113 79.1604 148.635 85.7327C151.156 92.305 151.994 93.0352 151.994 93.0352C151.994 93.0352 147.85 79.2561 157.936 78.5258C168.022 77.7955 179.308 71.4927 180.148 79.5255C180.989 87.5583 182.253 89.5375 182.253 89.5375C182.253 89.5375 190.236 78.065 180.572 74.7789Z" fill="#2F2E41"/>
<path d="M208.061 126.151L208.009 126.424L207.428 129.49L203.414 150.7L203.177 151.949L202.678 154.589L201.996 158.192L200.484 166.175L200.052 168.463L199.889 169.321L199.833 169.622L199.384 171.99L199.247 172.705L198.152 180.824L197.194 187.9L200.397 191.103L198.488 193.012L197.235 200.191L197.237 200.208H146.086C144.016 198.867 141.977 197.485 139.967 196.062L140.388 192.911C140.388 192.911 141.837 187.284 141.228 186.611C140.621 185.939 139.29 184.737 139.29 184.737L140.967 180.824L141.199 180.281L140.809 172.185L140.8 171.99L140.67 169.321L140.654 168.978L140.628 168.463L140.132 158.192L140.122 158.022L139.972 154.909L139.831 151.949L139.77 150.7L139.165 138.207L138.756 129.723L138.399 122.337L139.836 121.85L155.202 116.627L161.568 108.353L174.816 108.451L181.301 108.501L192.122 118.537L194.584 119.713L194.603 119.722L196.369 120.566L200.846 122.704L205.58 124.966L208.009 126.125L208.061 126.151Z" fill="#CACACA"/>
<path d="M163.28 176.105C162.309 176.482 161.267 176.64 160.229 176.57C159.19 176.5 158.179 176.204 157.267 175.701C156.356 175.198 155.565 174.501 154.952 173.66C154.339 172.819 153.918 171.853 153.718 170.831L128.661 167.276L137.371 157.423L159.83 162.31C161.569 162.088 163.329 162.511 164.776 163.5C166.223 164.489 167.258 165.975 167.683 167.675C168.108 169.376 167.895 171.173 167.083 172.727C166.272 174.281 164.918 175.483 163.28 176.105V176.105Z" fill="#FFB6B6"/>
<path d="M152.108 158.192C151.644 157.603 150.986 157.198 150.252 157.047L139.972 154.909L138.916 154.69C138.303 154.562 137.723 154.306 137.215 153.939C136.707 153.571 136.283 153.101 135.97 152.558C135.645 151.988 135.448 151.354 135.394 150.7C135.345 150.106 135.416 149.507 135.603 148.941L139.165 138.207L141.477 131.242C141.757 130.402 141.922 129.528 141.968 128.643C142.097 126.196 141.34 123.785 139.835 121.85C138.513 120.15 136.678 118.92 134.603 118.342C132.528 117.765 130.322 117.87 128.311 118.643C128.252 118.664 128.191 118.687 128.132 118.711C126.69 119.287 125.402 120.19 124.369 121.349C123.336 122.509 122.587 123.893 122.181 125.391L119.669 134.527L114.489 153.36C113.971 155.246 113.866 157.223 114.182 159.154C114.498 161.085 115.228 162.925 116.321 164.548C117.415 166.171 118.846 167.539 120.516 168.557C122.187 169.576 124.058 170.222 126.002 170.45L140.809 172.185L147.661 172.989C148.453 173.085 149.253 172.878 149.899 172.41C150.546 171.943 150.993 171.249 151.151 170.466C151.162 170.424 151.17 170.381 151.177 170.337L151.341 169.321L152.736 160.767L152.75 160.68C152.822 160.243 152.803 159.796 152.692 159.368C152.582 158.939 152.383 158.539 152.108 158.192Z" fill="#CACACA"/>
<path d="M179.24 176.38C180.254 176.615 181.307 176.625 182.326 176.41C183.345 176.194 184.303 175.757 185.135 175.131C185.967 174.505 186.651 173.704 187.139 172.784C187.628 171.865 187.909 170.849 187.962 169.81L212.268 162.757L202.255 154.231L180.709 162.235C178.957 162.261 177.274 162.928 175.981 164.112C174.687 165.295 173.873 166.911 173.692 168.655C173.511 170.398 173.976 172.148 174.998 173.571C176.021 174.995 177.53 175.994 179.24 176.38V176.38Z" fill="#FFB6B6"/>
<path d="M224.335 146.98L212.775 120.376C211.83 118.192 210.141 116.413 208.009 115.355C207.35 115.031 206.658 114.779 205.944 114.603C205.834 114.575 205.723 114.549 205.613 114.528C204.1 114.198 202.531 114.227 201.032 114.612C199.662 114.964 198.381 115.601 197.273 116.482C196.165 117.362 195.255 118.466 194.603 119.722C194.596 119.732 194.59 119.743 194.584 119.755C193.856 121.165 193.468 122.726 193.453 124.312C193.438 125.899 193.796 127.467 194.497 128.89L194.641 129.177L202.81 145.583C203.089 146.144 203.246 146.758 203.271 147.384C203.296 148.01 203.188 148.634 202.955 149.216C202.722 149.797 202.369 150.323 201.918 150.758C201.468 151.194 200.93 151.529 200.341 151.742L199.767 151.949L189.449 155.676C188.675 155.952 188.038 156.518 187.672 157.254C187.307 157.991 187.242 158.84 187.49 159.624L187.516 159.706L190.408 168.961C190.422 169.004 190.436 169.046 190.453 169.088C190.478 169.168 190.51 169.246 190.547 169.321C190.854 170.011 191.398 170.568 192.079 170.892C192.761 171.217 193.536 171.288 194.265 171.092L199.833 169.622L200.969 169.321L215.348 165.524C217.24 165.024 219.001 164.121 220.512 162.877C222.023 161.633 223.247 160.077 224.1 158.316C224.954 156.555 225.416 154.63 225.457 152.674C225.497 150.717 225.115 148.775 224.335 146.98L224.335 146.98Z" fill="#CACACA"/>
<path d="M110.558 169.321C113.89 173.385 117.483 177.228 121.315 180.825H227.594C228.618 180.826 229.6 181.234 230.323 181.958C231.047 182.682 231.454 183.664 231.455 184.688L231.608 211.619C238.146 208.615 244.269 204.78 249.825 200.208C251.367 198.94 252.862 197.618 254.309 196.241C255.257 195.342 256.181 194.422 257.084 193.48C263.847 186.434 269.324 178.257 273.266 169.321H110.558Z" fill="#3F3D56"/>
<path d="M257.084 193.48C256.183 194.423 255.258 195.343 254.309 196.241H231.686V193.48H257.084Z" fill="white"/>
<path d="M207.849 105.185C207.737 104.979 207.572 104.807 207.37 104.687C207.169 104.567 206.938 104.503 206.704 104.503H129.614C129.268 104.504 128.937 104.642 128.693 104.887C128.449 105.131 128.311 105.463 128.311 105.808V151.949H208.009V105.808C208.01 105.59 207.955 105.376 207.849 105.185V105.185Z" fill="#3F3D56"/>
<path d="M128.241 150.699V156.393C128.241 156.629 128.288 156.863 128.378 157.081C128.468 157.299 128.601 157.497 128.768 157.664C128.935 157.831 129.133 157.964 129.351 158.054C129.569 158.144 129.803 158.191 130.039 158.191H159.455V169.427H159.064C159.033 169.427 159.003 169.433 158.974 169.445C158.946 169.457 158.92 169.474 158.899 169.496C158.877 169.517 158.86 169.543 158.848 169.572C158.836 169.6 158.83 169.63 158.83 169.661V170.442C158.83 170.473 158.836 170.504 158.848 170.532C158.86 170.56 158.877 170.586 158.899 170.608C158.92 170.629 158.946 170.646 158.974 170.658C159.003 170.67 159.033 170.676 159.064 170.676H177.325C177.355 170.676 177.386 170.67 177.414 170.658C177.442 170.646 177.468 170.629 177.49 170.608C177.512 170.586 177.529 170.56 177.54 170.532C177.552 170.504 177.558 170.473 177.558 170.442V169.661C177.558 169.63 177.552 169.6 177.54 169.572C177.529 169.543 177.512 169.517 177.49 169.496C177.468 169.474 177.442 169.457 177.414 169.445C177.386 169.433 177.355 169.427 177.325 169.427H176.934V158.191H206.35C206.586 158.191 206.82 158.144 207.038 158.054C207.256 157.964 207.454 157.831 207.621 157.664C207.788 157.497 207.92 157.299 208.01 157.081C208.101 156.863 208.147 156.629 208.147 156.393V150.699H128.241Z" fill="#3F3D56"/>
<path d="M167.229 134.358C171.294 134.358 174.59 131.062 174.59 126.996C174.59 122.93 171.294 119.634 167.229 119.634C163.163 119.634 159.867 122.93 159.867 126.996C159.867 131.062 163.163 134.358 167.229 134.358Z" fill="#0A97B0"/>
<path d="M185.985 85.68H184.809C184.809 76.7915 176.013 70.967 167.138 70.9623C165.847 70.9585 164.559 71.0838 163.294 71.3362C161.869 71.6207 160.39 71.9617 158.936 72.4061C153.206 74.1626 147.892 77.5581 147.892 85.68C147.89 87.2574 148.091 88.8284 148.489 90.3547L147.351 90.651C146.929 89.0278 146.715 87.3573 146.716 85.68C146.716 78.5833 149.629 73.7088 154.661 70.8024C157.307 69.2739 160.535 68.2887 164.234 67.809C165.773 67.6042 167.329 67.5569 168.878 67.6679C179.084 68.4015 185.985 76.2272 185.985 85.68Z" fill="#0A97B0"/>
<path d="M187.944 86.3314L187.481 82.9076C187.366 82.043 186.95 81.2467 186.305 80.6597C185.891 80.277 185.395 79.9934 184.855 79.8305C184.316 79.6675 183.746 79.6294 183.189 79.7191L182.453 79.8202C182.252 79.8467 182.058 79.9129 181.882 80.0151C181.707 80.1172 181.553 80.2532 181.43 80.4151C181.307 80.5765 181.216 80.7608 181.164 80.9573C181.112 81.1539 181.099 81.3588 181.127 81.5603L182.197 89.447C182.241 89.7685 182.385 90.0679 182.609 90.303C182.832 90.538 183.124 90.6968 183.443 90.7568C183.538 90.7757 183.634 90.7852 183.73 90.785C183.799 90.785 183.868 90.7803 183.937 90.7709L184.76 90.6604C185.262 90.5938 185.745 90.4253 186.179 90.1653C186.613 89.9053 186.99 89.5593 187.285 89.1484C187.349 89.0591 187.41 88.9673 187.467 88.8733C187.907 88.1039 188.075 87.2082 187.944 86.3314Z" fill="#0A97B0"/>
<path d="M181.978 79.9637C181.762 80.0685 181.575 80.2233 181.43 80.4151C181.307 80.5765 181.216 80.7608 181.164 80.9574C181.112 81.1539 181.099 81.3588 181.127 81.5603L182.197 89.4471C182.241 89.7685 182.385 90.068 182.609 90.303C182.832 90.5381 183.124 90.6968 183.443 90.7568L181.978 79.9637Z" fill="white"/>
<path d="M187.944 86.3314L187.481 82.9077C187.366 82.043 186.95 81.2467 186.305 80.6597L187.37 88.5065C187.386 88.6324 187.418 88.7558 187.467 88.8733C187.907 88.1039 188.075 87.2083 187.944 86.3314V86.3314Z" fill="#3F3D56"/>
<path d="M184.283 88.7982C184.604 88.7546 184.766 87.9889 184.644 87.0881C184.522 86.1873 184.162 85.4924 183.84 85.5361C183.518 85.5797 183.357 86.3453 183.479 87.2462C183.601 88.147 183.961 88.8419 184.283 88.7982Z" fill="#3F3D56"/>
<path d="M183.577 84.5656C183.899 84.522 184.061 83.7563 183.939 82.8555C183.816 81.9547 183.456 81.2598 183.135 81.3035C182.813 81.3471 182.651 82.1127 182.773 83.0136C182.896 83.9144 183.256 84.6093 183.577 84.5656Z" fill="#3F3D56"/>
<path d="M188.045 86.2116C188.367 86.168 188.529 85.4023 188.406 84.5015C188.284 83.6007 187.924 82.9058 187.603 82.9495C187.281 82.9931 187.119 83.7587 187.241 84.6596C187.363 85.5604 187.723 86.2553 188.045 86.2116Z" fill="#3F3D56"/>
<path d="M167.138 70.9623C165.847 70.9585 164.559 71.0837 163.294 71.3362C161.869 71.6207 160.39 71.9616 158.936 72.4061C156.667 72.2955 154.998 71.7077 154.661 70.8024C157.307 69.2739 160.535 68.2887 164.234 67.809C165.773 67.6042 167.329 67.5569 168.878 67.6679C169.042 67.764 169.184 67.8937 169.294 68.0485C169.404 68.2034 169.481 68.3798 169.518 68.5661C169.628 69.3845 168.695 70.2545 167.138 70.9623Z" fill="#3F3D56"/>
<path d="M152.127 93.8396L150.316 86.3126C150.251 86.041 150.108 85.7946 149.904 85.6042C149.7 85.4139 149.444 85.2881 149.168 85.2427C149.091 85.2306 149.012 85.2243 148.933 85.2239C148.822 85.2243 148.712 85.2377 148.604 85.2638L147.903 85.4331C147.001 85.6513 146.222 86.2186 145.738 87.0103C145.253 87.8021 145.103 88.7537 145.319 89.6563L146.13 93.033C146.316 93.828 146.757 94.5401 147.386 95.06C147.488 95.1423 147.595 95.2185 147.706 95.2881C148.1 95.5351 148.54 95.7007 148.999 95.775C149.458 95.8493 149.927 95.8309 150.379 95.7208L151.078 95.5515C151.262 95.5084 151.436 95.4275 151.588 95.314C151.814 95.1493 151.986 94.9212 152.082 94.6587C152.177 94.3961 152.193 94.111 152.127 93.8396Z" fill="#0A97B0"/>
<path d="M148.331 92.4391C148.646 92.3631 148.73 91.585 148.517 90.7012C148.305 89.8174 147.876 89.1624 147.561 89.2384C147.245 89.3144 147.161 90.0924 147.374 90.9763C147.587 91.8601 148.015 92.515 148.331 92.4391Z" fill="#3F3D56"/>
<path d="M145.979 93.1445C146.295 93.0686 146.378 92.2905 146.166 91.4066C145.953 90.5228 145.525 89.8679 145.209 89.9439C144.893 90.0198 144.81 90.7979 145.023 91.6817C145.235 92.5656 145.664 93.2205 145.979 93.1445Z" fill="#3F3D56"/>
<path d="M152.242 93.8113L150.431 86.2843C150.361 85.9905 150.205 85.724 149.984 85.5182C149.762 85.3125 149.485 85.1765 149.187 85.1274L151.659 95.408C151.903 95.2292 152.088 94.9822 152.192 94.698C152.296 94.4139 152.313 94.1053 152.242 93.8113V93.8113Z" fill="white"/>
<path d="M145.728 88.1655C145.678 87.9562 145.584 87.7599 145.453 87.5894C145.199 88.2486 145.152 88.9698 145.319 89.6563L146.13 93.033C146.316 93.828 146.757 94.5401 147.386 95.06L145.728 88.1655Z" fill="#3F3D56"/>
</g>
</g>
<defs>
<clipPath id="clip0_0_1">
<rect width="400" height="270" fill="white"/>
</clipPath>
<clipPath id="clip1_0_1">
<rect width="200" height="174.203" fill="white" transform="translate(100 45)"/>
</clipPath>
</defs>
</svg>
