<svg width="1920" height="1080" viewBox="0 0 1920 1080" fill="none" xmlns="http://www.w3.org/2000/svg">
<g clip-path="url(#clip0_0_1)">
<path d="M662.983 575.973C663.061 640.641 638.066 702.82 593.251 749.44C590.549 752.269 587.774 755.029 584.927 757.722C580.588 761.849 576.104 765.816 571.474 769.623C528.162 805.307 474.091 825.359 417.985 826.544C416.116 826.587 414.24 826.608 412.356 826.608C367.61 826.608 311.331 802.708 260.257 769.623C256.031 766.885 251.843 764.085 247.693 761.221C245.753 759.895 243.823 758.55 241.902 757.186C222.203 743.276 203.505 728.001 185.946 711.474C174.45 700.684 163.669 689.156 153.673 676.964C114.429 628.557 105.774 584.939 161.722 575.973C168.346 574.915 174.775 573.784 181.008 572.58C190.038 570.845 198.68 568.971 206.933 566.958C218.051 564.256 228.496 561.326 238.269 558.168C241.556 557.11 244.768 556.031 247.905 554.93C294.28 538.642 325.319 517.401 346.447 494.354C350.031 490.453 353.335 486.505 356.359 482.51C360.985 476.429 365.188 470.037 368.936 463.379C374.111 454.128 378.456 444.437 381.923 434.421L382.114 433.87C398.925 385.379 393.81 340.4 412.356 325.346C491.633 260.989 590.33 352.639 636.656 460.719C638.991 466.165 641.188 471.644 643.245 477.156C644.169 479.618 645.061 482.085 645.919 484.556C648.176 490.997 650.224 497.454 652.063 503.927C652.769 506.396 653.441 508.863 654.081 511.327C654.765 513.987 655.421 516.639 656.028 519.292C660.535 538.712 662.983 557.865 662.983 575.973Z" fill="#F2F2F2"/>
<path d="M417.985 826.544C416.116 826.587 414.24 826.608 412.356 826.608C367.61 826.608 311.331 802.708 260.257 769.623C256.031 766.885 251.843 764.085 247.693 761.221L251.333 739.07L361.529 724.439L416.836 766.73L417.985 826.544Z" fill="#2F2E41"/>
<path d="M423.29 431.013H407.587C407.101 431.014 406.634 431.207 406.291 431.551C405.947 431.895 405.753 432.361 405.753 432.847V448.558C405.753 448.798 405.801 449.036 405.893 449.258C405.986 449.48 406.121 449.682 406.291 449.851C406.462 450.021 406.664 450.156 406.886 450.247C407.108 450.339 407.347 450.385 407.587 450.385H423.29C423.775 450.385 424.241 450.193 424.585 449.85C424.929 449.508 425.123 449.043 425.124 448.558V432.847C425.123 432.361 424.929 431.896 424.586 431.552C424.242 431.209 423.776 431.015 423.29 431.013V431.013Z" fill="white"/>
<path d="M423.29 457.785H407.587C407.101 457.785 406.634 457.978 406.291 458.322C405.947 458.666 405.753 459.132 405.753 459.619V475.329C405.753 475.569 405.801 475.807 405.893 476.029C405.986 476.251 406.121 476.453 406.291 476.623C406.462 476.792 406.664 476.927 406.886 477.018C407.108 477.11 407.347 477.157 407.587 477.156H423.29C423.775 477.156 424.241 476.964 424.585 476.621C424.929 476.279 425.123 475.814 425.124 475.329V459.619C425.123 459.133 424.929 458.667 424.586 458.323C424.242 457.98 423.776 457.786 423.29 457.785Z" fill="#E6E6E6"/>
<path d="M423.29 484.556H407.587C407.101 484.556 406.634 484.75 406.291 485.093C405.947 485.437 405.753 485.904 405.753 486.39V502.093C405.753 502.334 405.8 502.573 405.892 502.796C405.984 503.018 406.119 503.221 406.289 503.391C406.46 503.561 406.662 503.697 406.885 503.789C407.107 503.881 407.346 503.928 407.587 503.927H423.29C423.777 503.927 424.243 503.734 424.587 503.39C424.931 503.046 425.124 502.58 425.124 502.093V486.39C425.123 485.904 424.929 485.438 424.586 485.095C424.242 484.751 423.776 484.557 423.29 484.556V484.556Z" fill="#E6E6E6"/>
<path d="M425.096 512.837C425.018 512.414 424.795 512.033 424.465 511.757C424.135 511.481 423.72 511.329 423.29 511.327H407.587C407.101 511.327 406.634 511.521 406.291 511.865C405.947 512.209 405.753 512.675 405.753 513.161V528.864C405.753 529.105 405.8 529.344 405.892 529.567C405.984 529.79 406.119 529.992 406.289 530.162C406.46 530.333 406.662 530.468 406.885 530.56C407.107 530.652 407.346 530.699 407.587 530.699H423.29C423.777 530.698 424.243 530.505 424.587 530.161C424.931 529.817 425.124 529.351 425.124 528.864V513.161C425.126 513.053 425.116 512.944 425.096 512.837V512.837Z" fill="#E6E6E6"/>
<path d="M424.003 538.24C423.777 538.146 423.535 538.098 423.29 538.099H407.587C407.346 538.098 407.108 538.145 406.885 538.237C406.662 538.329 406.46 538.464 406.289 538.635C406.119 538.805 405.984 539.008 405.892 539.23C405.8 539.453 405.753 539.692 405.753 539.933V555.636C405.752 555.877 405.799 556.116 405.891 556.339C405.982 556.562 406.117 556.765 406.288 556.935C406.458 557.106 406.661 557.241 406.884 557.332C407.107 557.424 407.346 557.471 407.587 557.47H423.29C423.777 557.47 424.243 557.276 424.587 556.932C424.931 556.588 425.124 556.122 425.124 555.636V539.933C425.124 539.572 425.017 539.219 424.817 538.918C424.618 538.617 424.335 538.381 424.003 538.24Z" fill="#E6E6E6"/>
<path d="M456.276 431.013H440.573C440.087 431.014 439.621 431.207 439.277 431.551C438.933 431.895 438.74 432.361 438.739 432.847V448.558C438.74 448.798 438.787 449.036 438.88 449.258C438.972 449.48 439.107 449.682 439.277 449.851C439.448 450.021 439.65 450.156 439.872 450.247C440.095 450.339 440.333 450.385 440.573 450.385H456.276C456.762 450.385 457.227 450.193 457.571 449.85C457.915 449.508 458.109 449.043 458.111 448.558V432.847C458.109 432.361 457.915 431.896 457.572 431.552C457.228 431.209 456.762 431.015 456.276 431.013V431.013Z" fill="#E6E6E6"/>
<path d="M456.276 457.785H440.573C440.087 457.785 439.621 457.978 439.277 458.322C438.933 458.666 438.74 459.132 438.739 459.619V475.329C438.74 475.569 438.787 475.807 438.88 476.029C438.972 476.251 439.107 476.453 439.277 476.623C439.448 476.792 439.65 476.927 439.872 477.018C440.095 477.11 440.333 477.157 440.573 477.156H456.276C456.762 477.156 457.227 476.964 457.571 476.621C457.915 476.279 458.109 475.814 458.111 475.329V459.619C458.109 459.133 457.915 458.667 457.572 458.323C457.228 457.98 456.762 457.786 456.276 457.785Z" fill="#0A97B0"/>
<path d="M456.276 484.556H440.573C440.087 484.556 439.621 484.75 439.277 485.093C438.933 485.437 438.74 485.904 438.739 486.39V502.093C438.739 502.334 438.786 502.573 438.878 502.796C438.97 503.018 439.105 503.221 439.275 503.391C439.446 503.561 439.648 503.697 439.871 503.789C440.094 503.881 440.332 503.928 440.573 503.927H456.276C456.763 503.927 457.229 503.734 457.573 503.39C457.917 503.046 458.11 502.58 458.111 502.093V486.39C458.109 485.904 457.915 485.438 457.572 485.095C457.228 484.751 456.762 484.557 456.276 484.556V484.556Z" fill="#0A97B0"/>
<path d="M456.276 511.327H440.573C440.189 511.328 439.814 511.449 439.503 511.674C439.191 511.9 438.959 512.218 438.838 512.583C438.773 512.769 438.739 512.964 438.739 513.161V528.864C438.739 529.105 438.786 529.344 438.878 529.567C438.97 529.79 439.105 529.992 439.275 530.162C439.446 530.333 439.648 530.468 439.871 530.56C440.094 530.652 440.332 530.699 440.573 530.699H456.276C456.763 530.698 457.229 530.505 457.573 530.161C457.917 529.817 458.11 529.351 458.111 528.864V513.161C458.109 512.675 457.915 512.21 457.572 511.866C457.228 511.522 456.762 511.329 456.276 511.327V511.327Z" fill="#0A97B0"/>
<path d="M456.276 538.099H440.573C440.332 538.098 440.094 538.145 439.871 538.237C439.648 538.329 439.446 538.464 439.275 538.635C439.105 538.805 438.97 539.008 438.878 539.23C438.786 539.453 438.739 539.692 438.739 539.933V555.636C438.739 555.877 438.786 556.115 438.878 556.338C438.97 556.561 439.105 556.763 439.275 556.934C439.446 557.104 439.648 557.239 439.871 557.331C440.094 557.423 440.332 557.47 440.573 557.47H456.276C456.763 557.47 457.229 557.276 457.573 556.932C457.917 556.589 458.11 556.122 458.111 555.636V539.933C458.11 539.446 457.917 538.98 457.573 538.636C457.229 538.292 456.763 538.099 456.276 538.099V538.099Z" fill="#E6E6E6"/>
<path d="M489.263 431.013H473.56C473.073 431.014 472.607 431.207 472.263 431.551C471.919 431.895 471.726 432.361 471.726 432.847V448.558C471.726 448.798 471.773 449.036 471.866 449.258C471.958 449.48 472.093 449.682 472.264 449.851C472.434 450.021 472.636 450.156 472.859 450.247C473.081 450.339 473.319 450.385 473.56 450.385H489.263C489.748 450.385 490.213 450.193 490.557 449.85C490.901 449.508 491.095 449.043 491.097 448.558V432.847C491.095 432.361 490.902 431.896 490.558 431.552C490.214 431.209 489.749 431.015 489.263 431.013V431.013Z" fill="#0A97B0"/>
<path d="M489.263 457.785H473.56C473.073 457.785 472.607 457.978 472.263 458.322C471.919 458.666 471.726 459.132 471.726 459.619V475.329C471.726 475.569 471.773 475.807 471.866 476.029C471.958 476.251 472.093 476.453 472.264 476.623C472.434 476.792 472.636 476.927 472.859 477.018C473.081 477.11 473.319 477.157 473.56 477.156H489.263C489.748 477.156 490.213 476.964 490.557 476.621C490.901 476.279 491.095 475.814 491.097 475.329V459.619C491.095 459.133 490.902 458.667 490.558 458.323C490.214 457.98 489.749 457.786 489.263 457.785Z" fill="#0A97B0"/>
<path d="M489.263 484.556H473.56C473.073 484.556 472.607 484.75 472.263 485.093C471.919 485.437 471.726 485.904 471.726 486.39V502.093C471.725 502.334 471.772 502.573 471.864 502.796C471.956 503.018 472.091 503.221 472.262 503.391C472.432 503.561 472.634 503.697 472.857 503.789C473.08 503.881 473.319 503.928 473.56 503.927H489.263C489.749 503.927 490.215 503.734 490.559 503.39C490.903 503.046 491.097 502.58 491.097 502.093V486.39C491.095 485.904 490.902 485.438 490.558 485.095C490.214 484.751 489.749 484.557 489.263 484.556V484.556Z" fill="#E6E6E6"/>
<path d="M489.263 511.327H473.56C473.073 511.327 472.607 511.521 472.263 511.865C471.919 512.209 471.726 512.675 471.726 513.161V528.864C471.725 529.105 471.772 529.344 471.864 529.567C471.956 529.79 472.091 529.992 472.262 530.162C472.432 530.333 472.634 530.468 472.857 530.56C473.08 530.652 473.319 530.699 473.56 530.699H489.263C489.749 530.698 490.215 530.505 490.559 530.161C490.903 529.817 491.097 529.351 491.097 528.864V513.161C491.095 512.675 490.902 512.21 490.558 511.866C490.214 511.522 489.749 511.329 489.263 511.327V511.327Z" fill="#0A97B0"/>
<path d="M489.263 538.099H473.56C473.319 538.098 473.08 538.145 472.857 538.237C472.634 538.329 472.432 538.464 472.262 538.635C472.091 538.805 471.956 539.008 471.864 539.23C471.772 539.453 471.725 539.692 471.726 539.933V555.636C471.725 555.877 471.772 556.115 471.864 556.338C471.956 556.561 472.091 556.763 472.262 556.934C472.432 557.104 472.634 557.239 472.857 557.331C473.08 557.423 473.319 557.47 473.56 557.47H489.263C489.749 557.47 490.215 557.276 490.559 556.932C490.903 556.589 491.097 556.122 491.097 555.636V539.933C491.097 539.446 490.903 538.98 490.559 538.636C490.215 538.292 489.749 538.099 489.263 538.099V538.099Z" fill="#0A97B0"/>
<path d="M522.249 431.013H506.546C506.059 431.014 505.593 431.207 505.249 431.551C504.905 431.895 504.712 432.361 504.712 432.847V448.558C504.712 448.798 504.76 449.036 504.852 449.258C504.944 449.48 505.079 449.682 505.25 449.851C505.42 450.021 505.622 450.156 505.845 450.247C506.067 450.339 506.305 450.385 506.546 450.385H522.249C522.734 450.385 523.2 450.193 523.543 449.85C523.887 449.508 524.081 449.043 524.083 448.558V432.847C524.082 432.361 523.888 431.896 523.544 431.552C523.2 431.209 522.735 431.015 522.249 431.013V431.013Z" fill="#0A97B0"/>
<path d="M522.249 457.785H506.546C506.059 457.785 505.593 457.978 505.249 458.322C504.905 458.666 504.712 459.132 504.712 459.619V475.329C504.712 475.569 504.76 475.807 504.852 476.029C504.944 476.251 505.079 476.453 505.25 476.623C505.42 476.792 505.622 476.927 505.845 477.018C506.067 477.11 506.305 477.157 506.546 477.156H522.249C522.734 477.156 523.2 476.964 523.543 476.621C523.887 476.279 524.081 475.814 524.083 475.329V459.619C524.082 459.133 523.888 458.667 523.544 458.323C523.2 457.98 522.735 457.786 522.249 457.785V457.785Z" fill="white"/>
<path d="M522.249 484.556H506.546C506.059 484.556 505.593 484.75 505.249 485.093C504.905 485.437 504.712 485.904 504.712 486.39V502.093C504.711 502.334 504.758 502.573 504.85 502.796C504.942 503.018 505.077 503.221 505.248 503.391C505.418 503.561 505.621 503.697 505.843 503.789C506.066 503.881 506.305 503.928 506.546 503.927H522.249C522.735 503.927 523.202 503.734 523.545 503.39C523.889 503.046 524.083 502.58 524.083 502.093V486.39C524.082 485.904 523.888 485.438 523.544 485.095C523.2 484.751 522.735 484.557 522.249 484.556V484.556Z" fill="white"/>
<path d="M522.249 511.327H506.546C506.059 511.327 505.593 511.521 505.249 511.865C504.905 512.209 504.712 512.675 504.712 513.161V528.864C504.711 529.105 504.758 529.344 504.85 529.567C504.942 529.79 505.077 529.992 505.248 530.162C505.418 530.333 505.621 530.468 505.843 530.56C506.066 530.652 506.305 530.699 506.546 530.699H522.249C522.735 530.698 523.202 530.505 523.545 530.161C523.889 529.817 524.083 529.351 524.083 528.864V513.161C524.082 512.675 523.888 512.21 523.544 511.866C523.201 511.522 522.735 511.329 522.249 511.327V511.327Z" fill="#E6E6E6"/>
<path d="M522.249 538.099H506.546C506.305 538.098 506.066 538.145 505.843 538.237C505.621 538.329 505.418 538.464 505.248 538.635C505.077 538.805 504.942 539.008 504.85 539.23C504.758 539.453 504.711 539.692 504.712 539.933V555.636C504.711 555.877 504.758 556.115 504.85 556.338C504.942 556.561 505.077 556.763 505.248 556.934C505.418 557.104 505.621 557.239 505.843 557.331C506.066 557.423 506.305 557.47 506.546 557.47H522.249C522.735 557.47 523.202 557.276 523.546 556.932C523.889 556.589 524.083 556.122 524.083 555.636V539.933C524.083 539.446 523.889 538.98 523.545 538.636C523.202 538.292 522.735 538.099 522.249 538.099V538.099Z" fill="#0A97B0"/>
<path d="M555.235 431.013H539.525C539.04 431.015 538.575 431.209 538.232 431.553C537.89 431.897 537.698 432.362 537.698 432.847V448.558C537.698 449.042 537.89 449.507 538.233 449.849C538.576 450.192 539.04 450.385 539.525 450.385H555.235C555.72 450.385 556.186 450.193 556.53 449.85C556.873 449.508 557.067 449.043 557.069 448.558V432.847C557.068 432.361 556.874 431.896 556.53 431.552C556.187 431.209 555.721 431.015 555.235 431.013Z" fill="white"/>
<path d="M555.235 457.785H539.525C539.04 457.786 538.575 457.98 538.232 458.324C537.89 458.668 537.698 459.134 537.698 459.619V475.329C537.698 475.813 537.89 476.278 538.233 476.621C538.576 476.963 539.04 477.156 539.525 477.156H555.235C555.72 477.156 556.186 476.964 556.53 476.621C556.873 476.279 557.067 475.814 557.069 475.329V459.619C557.068 459.133 556.874 458.667 556.53 458.323C556.187 457.98 555.721 457.786 555.235 457.785V457.785Z" fill="white"/>
<path d="M555.235 484.556H539.525C539.04 484.558 538.575 484.752 538.232 485.095C537.89 485.439 537.698 485.905 537.698 486.39V502.093C537.697 502.334 537.744 502.572 537.835 502.794C537.927 503.017 538.061 503.219 538.231 503.389C538.401 503.559 538.602 503.695 538.824 503.787C539.046 503.879 539.284 503.927 539.525 503.927H555.235C555.721 503.927 556.188 503.734 556.532 503.39C556.876 503.046 557.069 502.58 557.069 502.093V486.39C557.068 485.904 556.874 485.438 556.53 485.095C556.187 484.751 555.721 484.557 555.235 484.556V484.556Z" fill="white"/>
<path d="M555.235 511.327H539.525C539.04 511.329 538.575 511.523 538.232 511.867C537.89 512.211 537.698 512.676 537.698 513.161V528.864C537.697 529.105 537.744 529.343 537.835 529.565C537.927 529.788 538.061 529.99 538.231 530.16C538.401 530.331 538.602 530.466 538.824 530.558C539.046 530.651 539.284 530.698 539.525 530.699H555.235C555.721 530.698 556.188 530.505 556.532 530.161C556.876 529.817 557.069 529.351 557.069 528.864V513.161C557.068 512.675 556.874 512.21 556.53 511.866C556.187 511.522 555.721 511.329 555.235 511.327V511.327Z" fill="#0A97B0"/>
<path d="M555.235 538.099H539.525C539.284 538.099 539.046 538.146 538.824 538.239C538.602 538.331 538.401 538.466 538.231 538.637C538.061 538.807 537.927 539.009 537.835 539.232C537.744 539.454 537.697 539.692 537.698 539.933V555.636C537.697 555.876 537.744 556.114 537.835 556.337C537.927 556.559 538.061 556.761 538.231 556.932C538.401 557.102 538.602 557.237 538.824 557.33C539.046 557.422 539.284 557.47 539.525 557.47H555.235C555.721 557.47 556.188 557.276 556.532 556.932C556.876 556.588 557.069 556.122 557.069 555.636V539.933C557.069 539.446 556.876 538.98 556.532 538.636C556.188 538.292 555.721 538.099 555.235 538.099V538.099Z" fill="#E6E6E6"/>
<path d="M588.221 431.013H572.511C572.026 431.015 571.561 431.209 571.219 431.553C570.876 431.897 570.684 432.362 570.684 432.847V448.558C570.684 449.042 570.877 449.507 571.219 449.849C571.562 450.192 572.027 450.385 572.511 450.385H588.221C588.706 450.385 589.172 450.193 589.516 449.85C589.86 449.508 590.054 449.043 590.055 448.558V432.847C590.054 432.361 589.86 431.896 589.517 431.552C589.173 431.209 588.707 431.015 588.221 431.013V431.013Z" fill="white"/>
<path d="M588.221 457.785H572.511C572.026 457.786 571.561 457.98 571.218 458.324C570.876 458.668 570.684 459.134 570.684 459.619V475.329C570.684 475.813 570.877 476.278 571.219 476.621C571.562 476.963 572.027 477.156 572.511 477.156H588.221C588.706 477.156 589.172 476.964 589.516 476.621C589.86 476.279 590.054 475.814 590.055 475.329V459.619C590.054 459.133 589.86 458.667 589.517 458.323C589.173 457.98 588.707 457.786 588.221 457.785V457.785Z" fill="white"/>
<path d="M588.221 484.556H572.511C572.026 484.558 571.561 484.752 571.218 485.095C570.876 485.439 570.684 485.905 570.684 486.39V502.093C570.683 502.334 570.73 502.572 570.822 502.794C570.913 503.017 571.047 503.219 571.217 503.389C571.387 503.559 571.589 503.695 571.811 503.787C572.033 503.879 572.271 503.927 572.511 503.927H588.221C588.708 503.927 589.174 503.734 589.518 503.39C589.862 503.046 590.055 502.58 590.055 502.093V486.39C590.054 485.904 589.86 485.438 589.517 485.095C589.173 484.751 588.707 484.557 588.221 484.556V484.556Z" fill="#0A97B0"/>
<path d="M588.221 511.327H572.511C572.026 511.329 571.561 511.523 571.219 511.867C570.876 512.211 570.684 512.676 570.684 513.161V528.864C570.683 529.105 570.73 529.343 570.822 529.565C570.913 529.788 571.047 529.99 571.217 530.16C571.387 530.331 571.589 530.466 571.811 530.558C572.033 530.651 572.271 530.698 572.511 530.699H588.221C588.708 530.698 589.174 530.505 589.518 530.161C589.862 529.817 590.055 529.351 590.055 528.864V513.161C590.054 512.675 589.86 512.21 589.517 511.866C589.173 511.522 588.707 511.329 588.221 511.327V511.327Z" fill="#E6E6E6"/>
<path d="M588.221 538.099H572.511C572.271 538.099 572.033 538.146 571.811 538.239C571.589 538.331 571.387 538.466 571.217 538.637C571.047 538.807 570.913 539.009 570.822 539.232C570.73 539.454 570.683 539.692 570.684 539.933V555.636C570.683 555.876 570.73 556.114 570.822 556.337C570.913 556.559 571.047 556.761 571.217 556.932C571.387 557.102 571.589 557.237 571.811 557.33C572.033 557.422 572.271 557.47 572.511 557.47H588.221C588.708 557.47 589.174 557.276 589.518 556.932C589.862 556.588 590.055 556.122 590.055 555.636V539.933C590.055 539.446 589.862 538.98 589.518 538.636C589.174 538.292 588.708 538.099 588.221 538.099Z" fill="white"/>
<path d="M621.207 431.013H605.497C605.012 431.015 604.547 431.209 604.205 431.553C603.862 431.897 603.67 432.362 603.67 432.847V448.558C603.67 449.042 603.863 449.507 604.205 449.849C604.548 450.192 605.013 450.385 605.497 450.385H621.207C621.693 450.385 622.158 450.193 622.502 449.85C622.846 449.508 623.04 449.043 623.041 448.558V432.847C623.04 432.361 622.846 431.896 622.503 431.552C622.159 431.209 621.693 431.015 621.207 431.013V431.013Z" fill="#0A97B0"/>
<path d="M621.207 457.785H605.497C605.012 457.786 604.547 457.98 604.205 458.324C603.862 458.668 603.67 459.134 603.67 459.619V475.329C603.67 475.813 603.863 476.278 604.205 476.621C604.548 476.963 605.013 477.156 605.497 477.156H621.207C621.693 477.156 622.158 476.964 622.502 476.621C622.846 476.279 623.04 475.814 623.041 475.329V459.619C623.04 459.133 622.846 458.667 622.503 458.323C622.159 457.98 621.693 457.786 621.207 457.785Z" fill="#0A97B0"/>
<path d="M621.207 484.556H605.497C605.012 484.558 604.547 484.752 604.205 485.095C603.862 485.439 603.67 485.905 603.67 486.39V502.093C603.67 502.334 603.716 502.572 603.808 502.794C603.899 503.017 604.034 503.219 604.203 503.389C604.373 503.559 604.575 503.695 604.797 503.787C605.019 503.879 605.257 503.927 605.497 503.927H621.207C621.694 503.927 622.16 503.734 622.504 503.39C622.848 503.046 623.041 502.58 623.041 502.093V486.39C623.04 485.904 622.846 485.438 622.503 485.095C622.159 484.751 621.693 484.557 621.207 484.556V484.556Z" fill="#E6E6E6"/>
<path d="M621.207 511.327H605.497C605.012 511.329 604.547 511.523 604.205 511.867C603.862 512.211 603.67 512.676 603.67 513.161V528.864C603.669 529.105 603.716 529.343 603.808 529.565C603.899 529.788 604.034 529.99 604.203 530.16C604.373 530.331 604.575 530.466 604.797 530.558C605.019 530.651 605.257 530.698 605.497 530.699H621.207C621.694 530.698 622.16 530.505 622.504 530.161C622.848 529.817 623.041 529.351 623.041 528.864V513.161C623.04 512.675 622.846 512.21 622.503 511.866C622.159 511.522 621.693 511.329 621.207 511.327V511.327Z" fill="white"/>
<path d="M621.207 538.099H605.497C605.257 538.099 605.019 538.146 604.797 538.239C604.575 538.331 604.373 538.466 604.203 538.637C604.034 538.807 603.899 539.009 603.808 539.232C603.716 539.454 603.669 539.692 603.67 539.933V555.636C603.669 555.876 603.716 556.114 603.808 556.337C603.899 556.559 604.034 556.761 604.203 556.932C604.373 557.102 604.575 557.237 604.797 557.33C605.019 557.422 605.257 557.47 605.497 557.47H621.207C621.694 557.47 622.16 557.276 622.504 556.932C622.848 556.588 623.041 556.122 623.041 555.636V539.933C623.041 539.446 622.848 538.98 622.504 538.636C622.16 538.292 621.694 538.099 621.207 538.099Z" fill="#0A97B0"/>
<path d="M654.193 431.013H638.483C637.998 431.015 637.533 431.209 637.191 431.553C636.848 431.897 636.656 432.362 636.656 432.847V448.558C636.656 449.042 636.849 449.507 637.192 449.849C637.534 450.192 637.999 450.385 638.483 450.385H654.193C654.679 450.385 655.144 450.193 655.488 449.85C655.832 449.508 656.026 449.043 656.028 448.558V432.847C656.026 432.361 655.832 431.896 655.489 431.552C655.145 431.209 654.679 431.015 654.193 431.013Z" fill="#0A97B0"/>
<path d="M654.193 457.785H638.483C637.998 457.786 637.533 457.98 637.191 458.324C636.848 458.668 636.656 459.134 636.656 459.619V475.329C636.656 475.813 636.849 476.278 637.192 476.621C637.534 476.963 637.999 477.156 638.483 477.156H654.193C654.679 477.156 655.144 476.964 655.488 476.621C655.832 476.279 656.026 475.814 656.028 475.329V459.619C656.026 459.133 655.833 458.667 655.489 458.323C655.145 457.98 654.679 457.786 654.193 457.785V457.785Z" fill="#0A97B0"/>
<path d="M654.193 484.556H638.483C637.998 484.558 637.533 484.752 637.191 485.095C636.848 485.439 636.656 485.905 636.656 486.39V502.093C636.656 502.334 636.702 502.572 636.794 502.794C636.885 503.017 637.02 503.219 637.19 503.389C637.359 503.559 637.561 503.695 637.783 503.787C638.005 503.879 638.243 503.927 638.483 503.927H654.193C654.68 503.927 655.146 503.734 655.49 503.39C655.834 503.046 656.027 502.58 656.028 502.093V486.39C656.026 485.904 655.833 485.438 655.489 485.095C655.145 484.751 654.679 484.557 654.193 484.556Z" fill="#E6E6E6"/>
<path d="M654.193 511.327H638.483C637.998 511.329 637.533 511.523 637.191 511.867C636.848 512.211 636.656 512.676 636.656 513.161V528.864C636.656 529.105 636.702 529.343 636.794 529.565C636.885 529.788 637.02 529.99 637.19 530.16C637.359 530.331 637.561 530.466 637.783 530.558C638.005 530.651 638.243 530.698 638.483 530.699H654.193C654.68 530.698 655.146 530.505 655.49 530.161C655.834 529.817 656.027 529.351 656.028 528.864V513.161C656.026 512.675 655.832 512.21 655.489 511.866C655.145 511.522 654.679 511.329 654.193 511.327V511.327Z" fill="#0A97B0"/>
<path d="M654.193 538.099H638.483C638.243 538.099 638.005 538.146 637.783 538.239C637.561 538.331 637.359 538.466 637.19 538.637C637.02 538.807 636.885 539.009 636.794 539.232C636.702 539.454 636.656 539.692 636.656 539.933V555.636C636.656 555.876 636.702 556.114 636.794 556.337C636.885 556.559 637.02 556.761 637.19 556.932C637.359 557.102 637.561 557.237 637.783 557.33C638.005 557.422 638.243 557.47 638.483 557.47H654.193C654.68 557.47 655.146 557.276 655.49 556.932C655.834 556.588 656.027 556.122 656.028 555.636V539.933C656.027 539.446 655.834 538.98 655.49 538.636C655.146 538.292 654.68 538.099 654.193 538.099V538.099Z" fill="#0A97B0"/>
<path d="M687.18 431.013H671.47C670.984 431.015 670.52 431.209 670.177 431.553C669.835 431.897 669.642 432.362 669.643 432.847V448.558C669.643 449.042 669.835 449.507 670.178 449.849C670.52 450.192 670.985 450.385 671.47 450.385H687.18C687.665 450.385 688.13 450.193 688.474 449.85C688.818 449.508 689.012 449.043 689.014 448.558V432.847C689.012 432.361 688.819 431.896 688.475 431.552C688.131 431.209 687.666 431.015 687.18 431.013V431.013Z" fill="#E6E6E6"/>
<path d="M687.18 457.785H671.47C670.984 457.786 670.52 457.98 670.177 458.324C669.835 458.668 669.642 459.134 669.643 459.619V475.329C669.643 475.813 669.835 476.278 670.178 476.621C670.52 476.963 670.985 477.156 671.47 477.156H687.18C687.665 477.156 688.13 476.964 688.474 476.621C688.818 476.279 689.012 475.814 689.014 475.329V459.619C689.012 459.133 688.819 458.667 688.475 458.323C688.131 457.98 687.666 457.786 687.18 457.785V457.785Z" fill="#0A97B0"/>
<path d="M687.18 484.556H671.47C670.984 484.558 670.52 484.752 670.177 485.095C669.835 485.439 669.642 485.905 669.643 486.39V502.093C669.642 502.334 669.689 502.572 669.78 502.794C669.872 503.017 670.006 503.219 670.176 503.389C670.345 503.559 670.547 503.695 670.769 503.787C670.991 503.879 671.229 503.927 671.47 503.927H687.18C687.666 503.927 688.132 503.734 688.476 503.39C688.82 503.046 689.014 502.58 689.014 502.093V486.39C689.012 485.904 688.819 485.438 688.475 485.095C688.131 484.751 687.666 484.557 687.18 484.556V484.556Z" fill="#0A97B0"/>
<path d="M687.18 511.327H671.47C670.984 511.329 670.52 511.523 670.177 511.867C669.835 512.211 669.642 512.676 669.643 513.161V528.864C669.642 529.105 669.689 529.343 669.78 529.565C669.872 529.788 670.006 529.99 670.176 530.16C670.345 530.331 670.547 530.466 670.769 530.558C670.991 530.651 671.229 530.698 671.47 530.699H687.18C687.666 530.698 688.132 530.505 688.476 530.161C688.82 529.817 689.014 529.351 689.014 528.864V513.161C689.012 512.675 688.819 512.21 688.475 511.866C688.131 511.522 687.666 511.329 687.18 511.327V511.327Z" fill="#0A97B0"/>
<path d="M687.18 538.099H671.47C671.229 538.099 670.991 538.146 670.769 538.239C670.547 538.331 670.345 538.466 670.176 538.637C670.006 538.807 669.872 539.009 669.78 539.232C669.689 539.454 669.642 539.692 669.643 539.933V555.636C669.642 555.876 669.689 556.114 669.78 556.337C669.872 556.559 670.006 556.761 670.176 556.932C670.345 557.102 670.547 557.237 670.769 557.33C670.991 557.422 671.229 557.47 671.47 557.47H687.18C687.666 557.47 688.132 557.276 688.476 556.932C688.82 556.588 689.014 556.122 689.014 555.636V539.933C689.014 539.446 688.82 538.98 688.476 538.636C688.132 538.292 687.666 538.099 687.18 538.099V538.099Z" fill="#E6E6E6"/>
<path d="M720.166 431.013H704.456C703.97 431.015 703.506 431.209 703.163 431.553C702.821 431.897 702.628 432.362 702.629 432.847V448.558C702.629 449.042 702.821 449.507 703.164 449.849C703.507 450.192 703.971 450.385 704.456 450.385H720.166C720.651 450.385 721.117 450.193 721.461 449.85C721.804 449.508 721.998 449.043 722 448.558V432.847C721.999 432.361 721.805 431.896 721.461 431.552C721.118 431.209 720.652 431.015 720.166 431.013V431.013Z" fill="#E6E6E6"/>
<path d="M720.166 457.785H704.456C703.97 457.786 703.506 457.98 703.163 458.324C702.821 458.668 702.628 459.134 702.629 459.619V475.329C702.629 475.813 702.821 476.278 703.164 476.621C703.507 476.963 703.971 477.156 704.456 477.156H720.166C720.651 477.156 721.117 476.964 721.461 476.621C721.804 476.279 721.998 475.814 722 475.329V459.619C721.999 459.133 721.805 458.667 721.461 458.323C721.118 457.98 720.652 457.786 720.166 457.785V457.785Z" fill="#E6E6E6"/>
<path d="M720.166 484.556H704.456C703.97 484.558 703.506 484.752 703.163 485.095C702.821 485.439 702.628 485.905 702.629 486.39V502.093C702.628 502.334 702.675 502.572 702.766 502.794C702.858 503.017 702.992 503.219 703.162 503.389C703.332 503.559 703.533 503.695 703.755 503.787C703.977 503.879 704.215 503.927 704.456 503.927H720.166C720.652 503.927 721.119 503.734 721.462 503.39C721.806 503.046 722 502.58 722 502.093V486.39C721.999 485.904 721.805 485.438 721.461 485.095C721.118 484.751 720.652 484.557 720.166 484.556V484.556Z" fill="#0A97B0"/>
<path d="M720.166 511.327H704.456C703.97 511.329 703.506 511.523 703.163 511.867C702.821 512.211 702.628 512.676 702.629 513.161V528.864C702.628 529.105 702.675 529.343 702.766 529.565C702.858 529.788 702.992 529.99 703.162 530.16C703.332 530.331 703.533 530.466 703.755 530.558C703.977 530.651 704.215 530.698 704.456 530.699H720.166C720.652 530.698 721.119 530.505 721.462 530.161C721.806 529.817 722 529.351 722 528.864V513.161C721.999 512.675 721.805 512.21 721.461 511.866C721.118 511.522 720.652 511.329 720.166 511.327V511.327Z" fill="#E6E6E6"/>
<path d="M720.166 538.099H704.456C704.215 538.099 703.977 538.146 703.755 538.239C703.533 538.331 703.332 538.466 703.162 538.637C702.992 538.807 702.858 539.009 702.766 539.232C702.675 539.454 702.628 539.692 702.629 539.933V555.636C702.628 555.876 702.675 556.114 702.766 556.337C702.858 556.559 702.992 556.761 703.162 556.932C703.332 557.102 703.533 557.237 703.755 557.33C703.977 557.422 704.215 557.47 704.456 557.47H720.166C720.652 557.47 721.119 557.276 721.462 556.932C721.806 556.588 722 556.122 722 555.636V539.933C722 539.446 721.806 538.98 721.462 538.636C721.119 538.292 720.652 538.099 720.166 538.099V538.099Z" fill="#E6E6E6"/>
<path d="M359.093 769.624H358.656L359.03 769.574L359.093 769.624Z" fill="#2F2E41"/>
<path d="M321.507 476.87C348.126 476.87 369.704 455.292 369.704 428.674C369.704 402.055 348.126 380.477 321.507 380.477C294.889 380.477 273.311 402.055 273.311 428.674C273.311 455.292 294.889 476.87 321.507 476.87Z" fill="#FFB6B6"/>
<path d="M363.715 393.337C363.715 393.337 376.32 369.238 348.588 367.048C348.588 367.048 324.945 345.601 300.847 363.127C300.847 363.127 287.702 363.127 280.514 378.001C280.514 378.001 270.176 374.08 267.904 384.574C267.904 384.574 260.339 406.481 267.904 426.198C275.469 445.915 277.982 448.106 277.982 448.106C277.982 448.106 265.551 406.768 295.808 404.577C326.065 402.387 359.923 383.478 362.444 407.577C364.966 431.675 368.76 437.612 368.76 437.612C368.76 437.612 392.709 403.195 363.715 393.337Z" fill="#2F2E41"/>
<path d="M446.182 547.453L446.026 548.271L444.284 557.47L432.242 621.1L431.53 624.846L430.034 632.768L427.989 643.575L423.452 667.525L422.155 674.389L421.668 676.964L421.498 677.867L420.151 684.97L419.742 687.115L416.455 711.473L413.583 732.7L423.192 742.308L417.463 748.036L413.703 769.573L413.71 769.623H260.257C254.049 765.602 247.931 761.456 241.902 757.186L243.164 747.733C243.164 747.733 247.51 730.852 245.683 728.834C243.863 726.817 239.87 723.212 239.87 723.212L244.9 711.473L245.598 709.844L244.427 685.556L244.399 684.97L244.011 676.964L243.961 675.934L243.884 674.389L242.395 643.575L242.367 643.067L241.916 633.727L241.492 624.846L241.309 621.1L239.496 583.62L238.269 558.168L237.196 536.01L241.507 534.55L287.607 518.882L306.703 494.058L346.447 494.354L365.903 494.503L398.367 524.611L405.753 528.138L405.81 528.166L411.107 530.698L424.539 537.111L438.739 543.897L446.026 547.375L446.182 547.453Z" fill="#CACACA"/>
<path d="M311.839 697.316C308.927 698.445 305.802 698.921 302.686 698.711C299.569 698.501 296.537 697.61 293.802 696.102C291.067 694.593 288.696 692.503 286.856 689.979C285.017 687.456 283.753 684.559 283.153 681.493L207.983 670.829L234.114 641.27L301.491 655.929C306.707 655.263 311.987 656.534 316.328 659.501C320.67 662.468 323.773 666.925 325.048 672.026C326.324 677.128 325.684 682.52 323.249 687.181C320.815 691.842 316.755 695.449 311.839 697.316V697.316Z" fill="#FFB6B6"/>
<path d="M278.323 643.575C276.931 641.81 274.959 640.593 272.757 640.14L241.916 633.727L238.748 633.071C236.908 632.687 235.169 631.919 233.645 630.816C232.122 629.714 230.849 628.302 229.909 626.673C228.934 624.963 228.344 623.061 228.181 621.1C228.034 619.317 228.247 617.522 228.809 615.824L239.496 583.62L246.43 562.725C247.271 560.205 247.767 557.583 247.905 554.93C248.291 547.589 246.02 540.354 241.506 534.55C237.539 529.449 232.035 525.76 225.809 524.027C219.584 522.295 212.966 522.61 206.933 524.928C206.757 524.992 206.573 525.062 206.397 525.133C202.071 526.86 198.205 529.57 195.107 533.048C192.008 536.527 189.761 540.678 188.542 545.174L181.008 572.58L165.468 629.079C163.912 634.739 163.598 640.669 164.546 646.463C165.495 652.256 167.684 657.776 170.964 662.645C174.244 667.514 178.537 671.616 183.549 674.672C188.562 677.728 194.175 679.665 200.006 680.35L244.427 685.556L264.983 687.968C267.36 688.254 269.758 687.634 271.698 686.231C273.638 684.828 274.978 682.746 275.452 680.399C275.485 680.271 275.511 680.142 275.53 680.011L276.023 676.964L280.207 651.3L280.249 651.039C280.467 649.729 280.408 648.389 280.076 647.103C279.745 645.818 279.148 644.616 278.323 643.575Z" fill="#CACACA"/>
<path d="M359.72 698.139C362.762 698.845 365.922 698.876 368.978 698.229C372.034 697.582 374.91 696.272 377.405 694.393C379.9 692.514 381.952 690.111 383.418 687.352C384.883 684.594 385.726 681.548 385.887 678.429L458.803 657.27L428.764 631.692L364.128 655.706C358.87 655.782 353.822 657.785 349.942 661.335C346.062 664.884 343.619 669.734 343.076 674.964C342.532 680.195 343.927 685.443 346.994 689.714C350.062 693.985 354.59 696.983 359.72 698.139V698.139Z" fill="#FFB6B6"/>
<path d="M495.005 609.94L460.326 530.127C457.489 523.575 452.423 518.239 446.026 515.066C444.049 514.093 441.973 513.336 439.833 512.809C439.501 512.724 439.17 512.646 438.838 512.583C434.3 511.593 429.594 511.68 425.096 512.837C420.985 513.893 417.142 515.804 413.819 518.446C410.496 521.087 407.767 524.399 405.81 528.166C405.788 528.197 405.769 528.23 405.753 528.265C403.567 532.494 402.405 537.177 402.359 541.937C402.314 546.697 403.387 551.401 405.492 555.671L405.922 556.532L430.429 605.75C431.266 607.433 431.738 609.274 431.813 611.152C431.888 613.03 431.565 614.903 430.866 616.647C430.167 618.392 429.106 619.969 427.754 621.275C426.403 622.581 424.79 623.586 423.022 624.225L421.301 624.846L390.346 636.027C388.024 636.856 386.113 638.554 385.017 640.763C383.921 642.972 383.725 645.52 384.47 647.871L384.548 648.118L393.225 675.884C393.267 676.011 393.309 676.138 393.359 676.265C393.435 676.505 393.529 676.738 393.641 676.964C394.563 679.032 396.193 680.703 398.237 681.677C400.282 682.651 402.607 682.863 404.794 682.275L421.498 677.867L424.906 676.964L468.043 665.571C473.719 664.071 479.004 661.362 483.536 657.63C488.068 653.898 491.74 649.231 494.3 643.948C496.861 638.664 498.249 632.89 498.371 627.021C498.492 621.151 497.344 615.325 495.005 609.94L495.005 609.94Z" fill="#CACACA"/>
<path d="M153.673 676.964C163.669 689.156 174.45 700.684 185.946 711.474H504.782C507.854 711.478 510.799 712.701 512.97 714.874C515.141 717.047 516.362 719.992 516.365 723.064L516.824 803.857C536.438 794.846 554.807 783.339 571.474 769.623C576.102 765.82 580.586 761.853 584.927 757.722C587.77 755.027 590.544 752.267 593.251 749.44C613.542 728.302 629.973 703.772 641.799 676.964H153.673Z" fill="#3F3D56"/>
<path d="M593.251 749.44C590.549 752.269 587.774 755.029 584.927 757.722H517.057V749.44H593.251Z" fill="white"/>
<path d="M445.547 484.556C445.212 483.937 444.715 483.42 444.111 483.06C443.506 482.7 442.815 482.51 442.111 482.51H210.841C209.804 482.513 208.811 482.927 208.078 483.66C207.346 484.394 206.934 485.388 206.933 486.425V624.846H446.026V486.425C446.03 485.771 445.865 485.127 445.547 484.556V484.556Z" fill="#3F3D56"/>
<path d="M206.724 621.098V638.18C206.724 638.888 206.863 639.589 207.134 640.243C207.405 640.897 207.802 641.492 208.303 641.993C208.804 642.493 209.398 642.891 210.052 643.162C210.707 643.433 211.408 643.572 212.116 643.572H300.364V677.282H299.191C299.099 677.282 299.008 677.3 298.923 677.336C298.838 677.371 298.761 677.422 298.696 677.487C298.631 677.553 298.579 677.63 298.544 677.715C298.509 677.8 298.491 677.891 298.491 677.983V680.327C298.491 680.419 298.509 680.511 298.544 680.596C298.579 680.681 298.631 680.758 298.696 680.823C298.761 680.888 298.838 680.939 298.923 680.975C299.008 681.01 299.099 681.028 299.191 681.028H353.974C354.066 681.028 354.157 681.01 354.242 680.975C354.327 680.939 354.405 680.888 354.47 680.823C354.535 680.758 354.586 680.681 354.621 680.596C354.657 680.511 354.675 680.419 354.675 680.327V677.983C354.675 677.891 354.657 677.8 354.621 677.715C354.586 677.63 354.535 677.553 354.47 677.487C354.405 677.422 354.327 677.371 354.242 677.336C354.157 677.3 354.066 677.282 353.974 677.282H352.802V643.572H441.05C441.758 643.572 442.459 643.433 443.113 643.162C443.767 642.891 444.362 642.493 444.863 641.993C445.363 641.492 445.76 640.897 446.031 640.243C446.302 639.589 446.442 638.888 446.442 638.18V621.098H206.724Z" fill="#3F3D56"/>
<path d="M323.686 572.073C335.883 572.073 345.771 562.185 345.771 549.988C345.771 537.791 335.883 527.903 323.686 527.903C311.489 527.903 301.602 537.791 301.602 549.988C301.602 562.185 311.489 572.073 323.686 572.073Z" fill="#4CD3C2"/>
<path d="M379.955 426.04H376.428C376.428 399.375 350.038 381.901 323.415 381.887C319.542 381.876 315.678 382.251 311.881 383.009C307.606 383.862 303.169 384.885 298.809 386.218C281.618 391.488 265.675 401.674 265.675 426.04C265.671 430.772 266.273 435.485 267.467 440.064L264.052 440.953C262.786 436.083 262.146 431.072 262.148 426.04C262.148 404.75 270.888 390.126 285.984 381.407C293.92 376.822 303.606 373.866 314.702 372.427C319.32 371.813 323.988 371.671 328.635 372.004C359.251 374.205 379.955 397.682 379.955 426.04Z" fill="#0A97B0"/>
<path d="M385.832 427.994L384.442 417.723C384.099 415.129 382.85 412.74 380.915 410.979C379.673 409.831 378.186 408.98 376.566 408.491C374.947 408.003 373.238 407.888 371.568 408.157L369.36 408.461C368.756 408.54 368.173 408.739 367.646 409.045C367.12 409.352 366.659 409.76 366.291 410.245C365.92 410.73 365.649 411.282 365.492 411.872C365.336 412.462 365.298 413.076 365.381 413.681L368.591 437.341C368.723 438.305 369.155 439.204 369.826 439.909C370.497 440.614 371.373 441.09 372.33 441.27C372.613 441.327 372.901 441.356 373.19 441.355C373.398 441.355 373.605 441.341 373.811 441.313L376.28 440.981C377.785 440.781 379.234 440.276 380.537 439.496C381.84 438.716 382.969 437.678 383.856 436.445C384.047 436.177 384.23 435.902 384.4 435.62C385.722 433.312 386.226 430.625 385.832 427.994Z" fill="#0A97B0"/>
<path d="M367.935 408.891C367.287 409.206 366.724 409.67 366.291 410.245C365.92 410.73 365.649 411.282 365.492 411.872C365.336 412.462 365.298 413.076 365.381 413.681L368.591 437.341C368.723 438.306 369.155 439.204 369.826 439.909C370.497 440.614 371.373 441.09 372.33 441.27L367.935 408.891Z" fill="white"/>
<path d="M385.832 427.994L384.442 417.723C384.099 415.129 382.85 412.74 380.915 410.979L384.11 434.519C384.158 434.897 384.255 435.267 384.4 435.62C385.722 433.312 386.226 430.625 385.832 427.994V427.994Z" fill="#3F3D56"/>
<path d="M374.848 435.395C375.813 435.264 376.299 432.967 375.932 430.264C375.565 427.562 374.486 425.477 373.521 425.608C372.555 425.739 372.07 428.036 372.437 430.738C372.803 433.441 373.883 435.526 374.848 435.395Z" fill="#3F3D56"/>
<path d="M372.732 422.697C373.697 422.566 374.182 420.269 373.816 417.567C373.449 414.864 372.369 412.779 371.404 412.91C370.439 413.041 369.954 415.338 370.32 418.041C370.687 420.743 371.767 422.828 372.732 422.697Z" fill="#3F3D56"/>
<path d="M386.135 427.635C387.1 427.504 387.586 425.207 387.219 422.505C386.852 419.802 385.773 417.717 384.808 417.848C383.842 417.979 383.357 420.276 383.724 422.979C384.09 425.681 385.17 427.766 386.135 427.635Z" fill="#3F3D56"/>
<path d="M323.415 381.887C319.542 381.876 315.678 382.251 311.881 383.008C307.606 383.862 303.169 384.885 298.809 386.218C292.002 385.887 286.993 384.123 285.984 381.407C293.92 376.822 303.606 373.866 314.702 372.427C319.32 371.813 323.988 371.671 328.635 372.004C329.127 372.292 329.552 372.681 329.883 373.146C330.213 373.61 330.442 374.139 330.554 374.698C330.885 377.153 328.085 379.763 323.415 381.887Z" fill="#3F3D56"/>
<path d="M278.38 450.519L272.948 427.938C272.754 427.123 272.324 426.384 271.711 425.813C271.099 425.242 270.331 424.864 269.505 424.728C269.272 424.692 269.036 424.673 268.8 424.672C268.467 424.673 268.136 424.713 267.812 424.791L265.71 425.299C263.003 425.954 260.667 427.656 259.213 430.031C257.76 432.406 257.308 435.261 257.957 437.969L260.391 448.099C260.947 450.484 262.27 452.62 264.158 454.18C264.464 454.427 264.784 454.655 265.117 454.864C266.3 455.605 267.619 456.102 268.996 456.325C270.374 456.548 271.782 456.493 273.138 456.162L275.233 455.654C275.787 455.525 276.309 455.282 276.764 454.942C277.442 454.448 277.957 453.764 278.245 452.976C278.532 452.188 278.579 451.333 278.38 450.519Z" fill="#0A97B0"/>
<path d="M266.992 446.317C267.939 446.089 268.19 443.755 267.552 441.104C266.914 438.452 265.629 436.487 264.682 436.715C263.735 436.943 263.484 439.277 264.122 441.929C264.76 444.58 266.045 446.545 266.992 446.317Z" fill="#3F3D56"/>
<path d="M259.938 448.434C260.885 448.206 261.135 445.871 260.497 443.22C259.859 440.568 258.574 438.604 257.627 438.832C256.68 439.059 256.43 441.394 257.068 444.045C257.706 446.697 258.991 448.661 259.938 448.434Z" fill="#3F3D56"/>
<path d="M278.725 450.434L273.293 427.853C273.082 426.972 272.615 426.172 271.951 425.555C271.287 424.937 270.456 424.53 269.562 424.382L276.976 455.224C277.708 454.688 278.265 453.947 278.576 453.094C278.888 452.242 278.939 451.316 278.725 450.434V450.434Z" fill="white"/>
<path d="M259.185 433.497C259.035 432.869 258.753 432.28 258.359 431.768C257.596 433.746 257.455 435.909 257.957 437.969L260.391 448.099C260.947 450.484 262.27 452.62 264.158 454.18L259.185 433.497Z" fill="#3F3D56"/>
</g>
<defs>
<clipPath id="clip0_0_1">
<rect width="600" height="522.608" fill="white" transform="translate(122 304)"/>
</clipPath>
</defs>
</svg>
